<?xml version="1.0" encoding="utf-8"?>
<svg version="1.1" id="Ebene_1" xmlns="http://www.w3.org/2000/svg" xmlns:xlink="http://www.w3.org/1999/xlink" x="0px" y="0px"
	 viewBox="0 0 14 14" style="enable-background:new 0 0 14 14;" xml:space="preserve">
<title>Icon - Connection</title>
<desc>Created using Figma</desc>
<path d="M13,6H1C0.6,6,0.2,5.8,0.1,5.4C-0.1,5,0,4.6,0.3,4.3l4-4c0.4-0.4,1-0.4,1.4,0c0.4,0.4,0.4,1,0,1.4L3.4,4H13c0.6,0,1,0.4,1,1
	S13.6,6,13,6z"/>
<path d="M9,14c-0.3,0-0.5-0.1-0.7-0.3c-0.4-0.4-0.4-1,0-1.4l2.3-2.3H1c-0.6,0-1-0.4-1-1s0.4-1,1-1h12c0.4,0,0.8,0.2,0.9,0.6
	C14.1,9,14,9.4,13.7,9.7l-4,4C9.6,13.9,9.3,14,9,14z"/>
</svg>
