<svg width="12" height="14" viewBox="0 0 12 14" version="1.1" xmlns="http://www.w3.org/2000/svg" xmlns:xlink="http://www.w3.org/1999/xlink">
<title>copy</title>
<desc>Created using Figma</desc>
<g id="Canvas" transform="translate(-1948 -261)">
<g id="copy">
<use xlink:href="#path0_fill" transform="translate(1948 261)" fill="#6E6E6E"/>
</g>
</g>
<defs>
<path id="path0_fill" d="M 7.8 1.3C 7.8 0.599999 7.2 3.05176e-06 6.5 3.05176e-06L 1.3 3.05176e-06C 0.6 3.05176e-06 7.62939e-07 0.599999 7.62939e-07 1.3L 7.62939e-07 8.3C 7.62939e-07 9 0.6 9.6 1.3 9.6L 1.3 1.3L 7.8 1.3ZM 2.5 3.9C 2.5 3.2 3.1 2.6 3.8 2.6L 9 2.6C 9.7 2.6 10.3 3.2 10.3 3.9L 10.3 10.9C 10.3 11.6 9.7 12.2 9 12.2L 3.8 12.2C 3.1 12.2 2.5 11.6 2.5 10.9L 2.5 3.9ZM 3.8 3.9L 9 3.9L 9 10.9L 3.8 10.9L 3.8 3.9Z"/>
</defs>
</svg>
