<svg width="24" height="24" viewBox="0 0 24 24" version="1.1" xmlns="http://www.w3.org/2000/svg" xmlns:xlink="http://www.w3.org/1999/xlink">
<title>fail icon</title>
<desc>Created using Figma</desc>
<g id="Canvas" transform="translate(-5694 -1465)">
<g id="fail icon">
<g id="Vector">
<use xlink:href="#path0_stroke" transform="translate(5695 1466)" fill="#E74C3C"/>
</g>
<g id="Vector">
<use xlink:href="#path1_stroke" transform="translate(5695 1466)" fill="#E74C3C"/>
</g>
</g>
</g>
<defs>
<path id="path0_stroke" d="M 0.707107 -0.707107C 0.316583 -1.09763 -0.316583 -1.09763 -0.707107 -0.707107C -1.09763 -0.316583 -1.09763 0.316583 -0.707107 0.707107L 0.707107 -0.707107ZM 21.2929 22.7071C 21.6834 23.0976 22.3166 23.0976 22.7071 22.7071C 23.0976 22.3166 23.0976 21.6834 22.7071 21.2929L 21.2929 22.7071ZM -0.707107 0.707107L 21.2929 22.7071L 22.7071 21.2929L 0.707107 -0.707107L -0.707107 0.707107Z"/>
<path id="path1_stroke" d="M 22.7071 0.707107C 23.0976 0.316583 23.0976 -0.316583 22.7071 -0.707107C 22.3166 -1.09763 21.6834 -1.09763 21.2929 -0.707107L 22.7071 0.707107ZM -0.707107 21.2929C -1.09763 21.6834 -1.09763 22.3166 -0.707107 22.7071C -0.316583 23.0976 0.316583 23.0976 0.707107 22.7071L -0.707107 21.2929ZM 21.2929 -0.707107L -0.707107 21.2929L 0.707107 22.7071L 22.7071 0.707107L 21.2929 -0.707107Z"/>
</defs>
</svg>
