<?xml version="1.0" encoding="utf-8"?>
<svg version="1.1" baseProfile="tiny" id="Ebene_1" xmlns="http://www.w3.org/2000/svg" xmlns:xlink="http://www.w3.org/1999/xlink"
	 x="0px" y="0px" viewBox="0 0 10 13" xml:space="preserve">
<title>Icon - Element</title>
<desc>Created using Figma</desc>
<g>
	<path fill="#5B5FFF" d="M3.5,11.1c-0.2,0-0.3-0.1-0.4-0.2l-3-4.1C0,6.6,0,6.4,0.1,6.2l3-4.1C3.3,1.9,3.6,1.8,3.8,2
		C4,2.1,4.1,2.4,3.9,2.7L1.2,6.5l2.8,3.8C4.1,10.6,4,10.9,3.8,11C3.7,11.1,3.6,11.1,3.5,11.1z"/>
	<path fill="#5B5FFF" d="M6.5,11.1c-0.1,0-0.2,0-0.3-0.1c-0.2-0.2-0.3-0.5-0.1-0.7l2.8-3.8L6.1,2.7C5.9,2.4,6,2.1,6.2,2
		c0.2-0.2,0.5-0.1,0.7,0.1l3,4.1c0.1,0.2,0.1,0.4,0,0.6l-3,4.1C6.8,11.1,6.6,11.1,6.5,11.1z"/>
</g>
</svg>
