<svg width="256" height="256" viewBox="0 0 256 256" fill="none" xmlns="http://www.w3.org/2000/svg">
<rect width="256" height="10" transform="translate(0 246)" fill="#E74C3C"/>
<rect width="256" height="256" fill="#E74C3C" fill-opacity="0.2"/>
<path fill-rule="evenodd" clip-rule="evenodd" d="M93.6779 -4.94728e-07H31.269L3.9432e-06 54.3401L31.269 108.551H93.6779L124.947 54.3401L93.6779 -4.94728e-07Z" transform="translate(107.053 74.1541)" fill="black"/>
<path d="M4.7808 34.8866C8.01108 37.9992 12.4042 40.0742 16.6682 40.0742C21.7074 40.0742 24.5501 37.7398 24.5501 34.2382C24.5501 30.4771 21.5782 29.3099 17.4435 27.624L11.2414 24.9005C6.71897 23.0848 2.06738 19.4535 2.06738 12.8393C2.06738 5.57667 8.39871 9.89456e-07 17.1851 9.89456e-07C22.4827 9.89456e-07 27.6511 2.20473 31.1398 5.70636L27.0051 10.894C24.1624 8.42985 21.0614 7.00326 17.1851 7.00326C12.9211 7.00326 10.0784 9.0783 10.0784 12.3206C10.0784 15.8222 13.5671 17.2488 17.3143 18.6754L23.3872 21.2692C28.814 23.6036 32.5612 26.9755 32.5612 33.5897C32.5612 40.982 26.4882 47.0775 16.2806 47.0775C10.2077 47.0775 4.26396 44.6134 3.9432e-06 40.4633L4.7808 34.8866Z" transform="translate(139.356 105.02)" fill="white"/>
<path d="M15.6345 -9.89456e-07C24.8085 -9.89456e-07 29.7185 6.61419 29.7185 16.2113C29.7185 17.7675 29.5893 19.1941 29.3309 19.9723H7.75265C8.39871 26.1974 12.275 29.5693 17.8311 29.5693C20.803 29.5693 23.258 28.6615 25.713 27.1052L28.4264 32.1631C25.1961 34.3679 21.0614 35.7944 16.7974 35.7944C7.36502 35.7944 -3.9432e-06 29.1802 -3.9432e-06 17.8972C-3.9432e-06 6.87357 7.62345 -9.89456e-07 15.6345 -9.89456e-07ZM22.7411 14.9144C22.7411 9.46737 20.4153 6.22512 15.7637 6.22512C11.7582 6.22512 8.2695 9.20799 7.62344 14.9144H22.7411Z" transform="translate(177.344 116.173)" fill="white"/>
<path d="M100.109 0.878379C117.552 -3.14201 143.007 6.71443 146.495 28.8914C147.271 33.8196 146.754 39.1369 142.619 41.9901C138.226 44.8433 133.962 47.8262 129.698 50.9387C121.429 56.9045 113.288 63.1296 105.406 69.6141C97.6538 76.0986 89.9011 82.8425 82.9237 90.4942C92.6145 100.869 103.856 109.688 114.968 118.118C121.041 122.787 127.243 127.196 133.574 131.476C137.063 133.811 140.552 136.015 144.04 138.35C146.883 140.295 147.788 144.056 147.658 147.558C147.529 164.807 132.412 175.441 119.103 178.683C115.356 179.591 111.609 180.11 107.861 179.98C104.76 179.98 101.013 179.721 98.1706 178.165C96.1032 176.997 94.8111 173.755 93.6482 171.55C91.9685 168.438 90.1595 165.325 88.3506 162.213C80.5979 148.725 72.1992 135.886 63.8005 122.917C61.7331 119.674 56.9523 119.545 54.6265 122.657C51.9131 126.289 49.4581 130.05 47.0031 133.681C43.3852 139.128 39.8965 144.575 36.537 150.152C34.9865 152.875 33.4359 155.469 31.8854 158.192C30.8517 160.008 29.818 163.121 27.6214 163.121C21.9362 162.991 15.9925 158.192 11.8577 154.172C6.94769 149.244 3.20058 143.148 1.52084 136.015C0.745569 133.033 0.228726 129.401 0.87478 126.289C1.65005 123.176 5.26795 121.749 7.59375 120.063C29.6888 103.204 38.0875 90.7535 38.0875 90.7535C38.0875 90.7535 36.4078 88.8082 36.0202 88.4191C33.8236 86.0847 31.627 83.7503 29.4304 81.4159C24.5204 76.358 19.2227 71.6891 13.9251 67.4094C11.2117 65.2046 8.49823 63.1296 5.65559 61.0545C4.36348 60.017 2.55452 59.2389 1.39162 58.0717C0.487148 57.1638 0.228726 55.4779 0.0995148 54.181C-0.54654 47.4371 2.03768 40.1745 5.39716 34.5978C8.88586 28.7617 14.0543 23.7038 19.7396 20.5913C21.807 19.424 24.908 17.6084 27.363 18.2568C29.172 18.6459 30.5933 22.4069 31.4978 24.0929C39.1212 37.3213 48.6828 50.5497 54.2389 58.0717C56.5647 61.1842 61.0871 61.0545 63.2837 57.942C67.806 51.5872 74.525 42.1198 76.8508 38.4885C80.4687 32.7821 83.8282 26.9461 87.0585 20.9803C89.9011 15.5334 92.3561 9.95668 95.0695 4.5097C95.974 2.04559 97.9122 1.39714 100.109 0.878379Z" transform="translate(24.1289 38)" fill="#2E86AB"/>
<path d="M82.0832 90.4942C82.7292 89.8457 83.3753 89.0676 84.0213 88.4191C90.4819 81.6752 97.5885 75.4501 104.566 69.6141C112.448 62.9999 120.588 56.7748 128.858 50.9387C133.121 47.8262 137.385 44.8433 141.779 41.9901C145.913 39.2666 146.43 33.9493 145.655 28.8914C142.166 6.71443 116.841 -3.14201 99.2682 0.878379C97.0716 1.39714 95.1335 2.04559 93.9706 4.38001C91.2571 9.82699 88.8021 15.5333 85.9595 20.8506C82.7292 26.8164 79.3697 32.6524 75.7518 38.3588C73.426 42.1198 66.7071 51.4575 62.1847 57.8123C59.9881 60.9249 55.3365 60.9249 53.1399 57.942C50.6849 54.6997 47.4546 50.2903 44.0951 45.2324C50.1681 58.9795 48.1007 76.6173 37.3762 90.6239C37.3762 90.6239 28.9775 103.074 6.88239 119.934C4.68581 121.62 0.938689 123.176 0.292635 126.289C-0.35342 129.401 0.163424 133.032 0.938689 136.015C2.74764 143.148 6.49476 149.373 11.2756 154.172C15.4103 158.192 21.354 162.991 27.0393 163.121C29.2359 163.121 30.2696 160.138 31.3033 158.192C32.8538 155.469 34.4043 152.745 35.9549 150.152C39.3143 144.575 42.803 139.128 46.4209 133.681C48.8759 129.92 51.331 126.289 54.0444 122.657C56.3702 119.545 61.0218 119.674 63.2184 122.917C65.5442 126.418 67.7407 129.92 70.0665 133.422C66.8363 119.415 70.971 103.204 82.0832 90.4942Z" transform="translate(24.9697 38)" fill="url(#paint0_linear)"/>
<path opacity="0.5" d="M38.2167 72.4636C38.2167 72.4636 36.537 70.5182 36.1494 70.1292C33.9528 67.7947 31.7562 65.4603 29.5596 63.1259C24.6496 58.1977 19.3519 53.5288 14.0543 49.2491C11.3409 47.0443 8.62744 44.9693 5.7848 42.8942C4.36348 41.8567 2.68373 41.0786 1.52083 39.9114C0.487148 39.0036 0.357937 37.3176 0.0995148 36.0207C-0.54654 29.2768 2.03768 22.0142 5.39716 16.4375C8.88586 10.6014 14.0543 5.54353 19.7396 2.43097C21.8069 1.26376 24.908 -0.422211 27.363 0.0965495C29.172 0.61531 30.5933 4.24663 31.4978 5.9326C35.7617 13.3249 40.6717 20.7173 45.0649 27.2018C51.0086 40.8192 48.9412 58.4571 38.2167 72.4636Z" transform="translate(24 56.1602)" fill="url(#paint1_linear)"/>
<path opacity="0.5" d="M77.8786 57.323C77.7493 74.5718 62.6317 85.2063 49.4521 88.4486C45.705 89.3564 41.9579 89.8752 38.2108 89.7455C35.1097 89.7455 31.3626 89.4861 28.52 87.9298C26.4526 86.7626 25.1605 83.5204 23.9976 81.3156C22.3178 78.2031 20.5089 75.0905 18.6999 71.978C13.0147 62.1215 7.07096 52.6541 0.998047 43.1868C-2.10302 29.0506 2.03174 12.7096 13.2731 -1.97891e-06C22.9639 10.3752 34.2052 19.1941 45.3174 27.624C51.3903 32.2928 57.5924 36.7023 63.9238 40.982C67.4125 43.3165 70.9012 45.5212 74.2606 47.8556C77.1033 49.9307 77.8786 53.6917 77.8786 57.323Z" transform="translate(93.9092 128.235)" fill="url(#paint2_linear)"/>
<path d="M0 -1.97891e-06C0.646055 1.16721 1.42132 2.20473 2.19659 3.24225C1.42132 2.20473 0.775266 1.03752 0 -1.97891e-06Z" transform="translate(30.4312 185.299)" fill="url(#paint3_linear)"/>
<path d="M2.4645e-07 -1.97891e-06C0.775266 1.03752 1.67974 2.07504 2.58422 2.98287C1.55053 1.94535 0.775266 0.907828 2.4645e-07 -1.97891e-06Z" transform="translate(32.7568 188.541)" fill="url(#paint4_linear)"/>
<path d="M3.10106 4.92822C3.10106 4.92822 3.10106 5.05791 3.10106 4.92822C2.06738 3.37194 1.03369 1.68597 0 -3.95782e-06L3.10106 4.92822Z" transform="translate(91.8066 166.623)" fill="url(#paint5_linear)"/>
<g opacity="0.9">
<path opacity="0.9" d="M2.53602 55.9016C4.86182 58.8845 8.60893 60.4408 12.356 60.3111C16.8784 60.0517 19.9795 56.9392 23.339 54.2157C31.4793 47.7312 40.1364 42.0248 49.052 36.5778C51.2485 35.1512 53.5743 33.8543 55.7709 32.4278C56.6754 31.909 58.6136 31.1309 59.1304 30.223C60.8102 27.6292 59.6473 22.8307 58.872 20.1072C56.9338 13.493 51.7654 8.04603 45.8217 4.6741C42.2038 2.59905 38.1982 1.17247 34.0635 0.394325C31.4793 0.00525506 28.7658 -0.124435 26.0524 0.134945C25.6648 0.134945 22.9514 0.524015 21.1424 1.04278C19.9795 1.30216 19.075 2.46936 18.6874 3.50688C18.2998 4.80378 17.6537 6.36006 17.3953 7.00851C17.0076 8.17572 16.4908 9.34294 16.1032 10.5101C15.1987 12.9743 14.2942 15.3087 13.3897 17.7728C10.1595 25.9433 6.54156 33.984 2.01917 41.6357C-0.565044 46.3046 -0.952675 51.6219 2.53602 55.9016Z" transform="translate(104.905 43.1528)" fill="url(#paint6_linear)"/>
</g>
<defs>
<linearGradient id="paint0_linear" x2="1" gradientUnits="userSpaceOnUse" gradientTransform="translate(-42.4191 29.8255) scale(175.58 176.231) rotate(-22)">
<stop stop-color="white" stop-opacity="0"/>
<stop offset="0.4434" stop-color="white" stop-opacity="0.5"/>
<stop offset="1" stop-color="white" stop-opacity="0"/>
</linearGradient>
<linearGradient id="paint1_linear" x2="1" gradientUnits="userSpaceOnUse" gradientTransform="translate(-0.0296961 11.9479) scale(48.3202 48.4994)">
<stop offset="0.000520833" stop-color="white" stop-opacity="0.25"/>
<stop offset="1"/>
</linearGradient>
<linearGradient id="paint2_linear" x2="1" gradientUnits="userSpaceOnUse" gradientTransform="translate(-0.0265976 5.89493) scale(77.8977 78.1865)">
<stop/>
<stop offset="1" stop-color="white" stop-opacity="0.25"/>
</linearGradient>
<linearGradient id="paint3_linear" x2="1" gradientUnits="userSpaceOnUse" gradientTransform="translate(0.582418 1.32757) scale(0.879213 0.882473) rotate(-22)">
<stop stop-color="white" stop-opacity="0"/>
<stop offset="0.4434" stop-color="white" stop-opacity="0.5"/>
<stop offset="1" stop-color="white" stop-opacity="0"/>
</linearGradient>
<linearGradient id="paint4_linear" x2="1" gradientUnits="userSpaceOnUse" gradientTransform="translate(0.409276 1.07708) scale(1.24476 1.24938) rotate(-22.0013)">
<stop stop-color="white" stop-opacity="0"/>
<stop offset="0.4434" stop-color="white" stop-opacity="0.5"/>
<stop offset="1" stop-color="white" stop-opacity="0"/>
</linearGradient>
<linearGradient id="paint5_linear" x2="1" gradientUnits="userSpaceOnUse" gradientTransform="translate(0.777979 2.25751) scale(1.09955 1.10363) rotate(-22.0015)">
<stop stop-color="white" stop-opacity="0"/>
<stop offset="0.4434" stop-color="white" stop-opacity="0.5"/>
<stop offset="1" stop-color="white" stop-opacity="0"/>
</linearGradient>
<linearGradient id="paint6_linear" x2="1" gradientUnits="userSpaceOnUse" gradientTransform="translate(-22.9112 30.5381) scale(67.9338 68.1856) rotate(-45.0001)">
<stop offset="0.1674" stop-color="white" stop-opacity="0"/>
<stop offset="1" stop-color="white" stop-opacity="0.9"/>
</linearGradient>
</defs>
</svg>
