<svg width="14" height="14" viewBox="0 0 14 14" version="1.1" xmlns="http://www.w3.org/2000/svg" xmlns:xlink="http://www.w3.org/1999/xlink">
<title>enter</title>
<desc>Created using Figma</desc>
<g id="Canvas" transform="translate(-1940 -172)">
<g id="enter">
<use xlink:href="#path0_fill" transform="matrix(-1 1.22465e-16 -1.22465e-16 -1 1954 186)" fill="#6A6A6A" />
</g>
</g>
<defs>
<path id="path0_fill" d="M 12.9231 5.92308L 4.09231 5.92308L 8.07692 1.83077C 8.50769 1.4 8.50769 0.753846 8.07692 0.323077C 7.64615 -0.107692 7 -0.107692 6.56923 0.323077L 0.753846 6.24615L 0 7L 0.753846 7.75385L 6.56923 13.6769C 6.78462 13.8923 7.10769 14 7.43077 14C 7.75385 14 7.96923 13.8923 8.18462 13.6769C 8.61538 13.2462 8.61538 12.6 8.18462 12.1692L 4.09231 8.07692L 12.9231 8.07692C 13.5692 8.07692 14 7.53846 14 7C 14 6.35385 13.5692 5.92308 12.9231 5.92308Z"/>
</defs>
</svg>
