<svg width="13" height="16" viewBox="0 0 13 16" version="1.1" xmlns="http://www.w3.org/2000/svg" xmlns:xlink="http://www.w3.org/1999/xlink">
<title>Redo</title>
<desc>Created using Figma</desc>
<g id="Canvas" transform="translate(-1679 -144)">
<g id="Redo">
<use xlink:href="#path0_fill" transform="matrix(-1 0 0 1 1692 144)" fill="#D2D2D2"/>
</g>
</g>
<defs>
<path id="path0_fill" d="M 13 9.98549C 13 13.3023 10.1913 16 6.73803 16L 4.52254 16C 4.15634 16 3.85606 15.7151 3.85606 15.3599L 3.85606 15.1453C 3.85606 14.7936 4.15268 14.5052 4.52254 14.5052L 6.73803 14.5052C 9.33437 14.5052 11.4473 12.4757 11.4473 9.98197C 11.4473 7.48824 9.33437 5.45878 6.73803 5.45878L 2.64761 5.45878L 5.46366 8.16355C 5.76761 8.45549 5.76761 8.9268 5.46366 9.21873C 5.1707 9.50011 4.65803 9.50011 4.36507 9.21873L 0.227042 5.24071C 0.0805634 5.10002 0 4.91361 0 4.71312C 0 4.51264 0.0805634 4.32623 0.227042 4.18554L 4.36873 0.211035C 4.66169 -0.0703451 5.17437 -0.0703451 5.46732 0.211035C 5.77127 0.502968 5.77127 0.97428 5.46732 1.26621L 2.65127 3.97098L 6.73803 3.97098C 10.1913 3.97098 13 6.66872 13 9.98549Z"/>
</defs>
</svg>
