<svg width="14" height="14" viewBox="0 0 14 14" version="1.1" xmlns="http://www.w3.org/2000/svg" xmlns:xlink="http://www.w3.org/1999/xlink">
<title>options</title>
<desc>Created using Figma</desc>
<g id="Canvas" transform="translate(-1949 -59)">
<g id="options">
<use xlink:href="#path0_fill" transform="translate(1949 59)" fill="#6E6E6E"/>
</g>
</g>
<defs>
<path id="path0_fill" d="M 12.399 7.69004C 12.4307 7.46137 12.4474 7.23088 12.449 7.00004C 12.4474 6.76919 12.4307 6.5387 12.399 6.31004L 13.919 5.16004C 13.9924 5.11435 14.0463 5.04309 14.0703 4.95999C 14.0944 4.87689 14.0867 4.78785 14.049 4.71004L 12.559 2.29004C 12.5138 2.21851 12.4455 2.16461 12.3655 2.13731C 12.2854 2.11002 12.1984 2.11098 12.119 2.14004L 10.329 2.84004C 9.95465 2.55704 9.5444 2.32501 9.10898 2.15004L 8.83897 0.290038C 8.8247 0.207952 8.78161 0.133651 8.71746 0.0804925C 8.6533 0.0273342 8.57228 -0.00119352 8.48897 3.82858e-05L 5.60897 3.82858e-05C 5.52567 -0.00119352 5.44465 0.0273342 5.38049 0.0804925C 5.31634 0.133651 5.27325 0.207952 5.25898 0.290038L 4.98898 2.15004C 4.55488 2.32775 4.14497 2.55959 3.76897 2.84004L 1.97897 2.14004C 1.89974 2.109 1.81207 2.10704 1.73152 2.1345C 1.65097 2.16196 1.58275 2.21706 1.53897 2.29004L 0.0489748 4.71004C 0.00506269 4.78273 -0.0100525 4.86923 0.00660349 4.95251C 0.0232595 5.03579 0.0704806 5.10982 0.138975 5.16004L 1.69897 6.31004C 1.66763 6.53874 1.65093 6.76921 1.64897 7.00004C 1.65088 7.23087 1.66758 7.46134 1.69897 7.69004L 0.188975 8.84004C 0.113796 8.88415 0.0577804 8.95472 0.0318874 9.03794C 0.00599437 9.12117 0.0120876 9.21107 0.0489748 9.29004L 1.48897 11.71C 1.53412 11.7816 1.60241 11.8355 1.68248 11.8628C 1.76254 11.8901 1.84954 11.8891 1.92897 11.86L 3.71897 11.16C 4.0933 11.443 4.50356 11.6751 4.93897 11.85L 5.20897 13.71C 5.22325 13.7921 5.26634 13.8664 5.33049 13.9196C 5.39465 13.9727 5.47567 14.0013 5.55898 14L 8.48897 14C 8.57228 14.0013 8.6533 13.9727 8.71746 13.9196C 8.78161 13.8664 8.8247 13.7921 8.83897 13.71L 9.10898 11.85C 9.54307 11.6723 9.95298 11.4405 10.329 11.16L 12.119 11.86C 12.1982 11.8911 12.2859 11.893 12.3664 11.8656C 12.447 11.8381 12.5152 11.783 12.559 11.71L 14.049 9.29004C 14.0907 9.21677 14.1046 9.1309 14.088 9.04823C 14.0715 8.96555 14.0257 8.89163 13.959 8.84004L 12.399 7.69004ZM 7.04897 9.45004C 6.39028 9.45806 5.75525 9.20474 5.28293 8.74554C 4.81062 8.28634 4.53951 7.6587 4.52898 7.00004C 4.60611 6.39144 4.9026 5.83188 5.36285 5.42628C 5.82311 5.02068 6.41551 4.7969 7.02898 4.7969C 7.64244 4.7969 8.23484 5.02068 8.6951 5.42628C 9.15535 5.83188 9.45184 6.39144 9.52897 7.00004C 9.51851 7.65174 9.25293 8.27336 8.78925 8.73143C 8.32557 9.18951 7.70076 9.4475 7.04897 9.45004Z"/>
</defs>
</svg>
