<svg width="31" height="22" viewBox="0 0 31 22" version="1.1" xmlns="http://www.w3.org/2000/svg" xmlns:xlink="http://www.w3.org/1999/xlink">
<title>success icon</title>
<desc>Created using Figma</desc>
<g id="Canvas" transform="translate(-5181 -1451)">
<g id="success icon">
<g id="Vector">
<use xlink:href="#path0_stroke" transform="translate(5192 1452)" fill="#42DA43"/>
</g>
<g id="Vector">
<use xlink:href="#path1_stroke" transform="translate(5182 1461)" fill="#42DA43"/>
</g>
</g>
</g>
<defs>
<path id="path0_stroke" d="M -0.725 19.3113C -1.10539 19.7117 -1.08916 20.3446 -0.68875 20.725C -0.288344 21.1054 0.344613 21.0892 0.724999 20.6887L -0.725 19.3113ZM 19.725 0.688749C 20.1054 0.288343 20.0892 -0.344614 19.6887 -0.724999C 19.2883 -1.10539 18.6554 -1.08916 18.275 -0.688749L 19.725 0.688749ZM 0.724999 20.6887L 19.725 0.688749L 18.275 -0.688749L -0.725 19.3113L 0.724999 20.6887Z"/>
<path id="path1_stroke" d="M 0.73994 -0.672673C 0.368433 -1.08133 -0.264015 -1.11145 -0.672673 -0.73994C -1.08133 -0.368433 -1.11145 0.264015 -0.73994 0.672673L 0.73994 -0.672673ZM 9.26006 11.6727C 9.63157 12.0813 10.264 12.1114 10.6727 11.7399C 11.0813 11.3684 11.1114 10.736 10.7399 10.3273L 9.26006 11.6727ZM -0.73994 0.672673L 9.26006 11.6727L 10.7399 10.3273L 0.73994 -0.672673L -0.73994 0.672673Z"/>
</defs>
</svg>
