<svg width="468" height="27" viewBox="0 0 468 27" fill="none" xmlns="http://www.w3.org/2000/svg">
<rect width="468" height="27" fill="black" fill-opacity="0"/>
<rect width="468" height="27" fill="#1E1E1E"/>
<rect width="298" height="27" fill="black" fill-opacity="0"/>
<path d="M0 0H10L0 27V0Z" fill="#FFA500" fill-opacity="0.25"/>
<path d="M26 0H42L32 27H16L26 0Z" fill="#FFA500" fill-opacity="0.25"/>
<path d="M58 0H74L64 27H48L58 0Z" fill="#FFA500" fill-opacity="0.25"/>
<path d="M90 0H106L96 27H80L90 0Z" fill="#FFA500" fill-opacity="0.25"/>
<path d="M122 0H138L128 27H112L122 0Z" fill="#FFA500" fill-opacity="0.25"/>
<path d="M154 0H170L160 27H144L154 0Z" fill="#FFA500" fill-opacity="0.25"/>
<path d="M186 0H202L192 27H176L186 0Z" fill="#FFA500" fill-opacity="0.25"/>
<path d="M218 0H234L224 27H208L218 0Z" fill="#FFA500" fill-opacity="0.2"/>
<path d="M250 0H266L256 27H240L250 0Z" fill="#FFA500" fill-opacity="0.15"/>
<path d="M282 0H298L288 27H272L282 0Z" fill="#FFA500" fill-opacity="0.1"/>
<path d="M10.912 9.432H14.464C15.12 9.432 15.688 9.544 16.168 9.768C16.648 9.992 17.04 10.3 17.344 10.692C17.648 11.076 17.872 11.528 18.016 12.048C18.168 12.568 18.244 13.124 18.244 13.716C18.244 14.308 18.168 14.864 18.016 15.384C17.872 15.904 17.648 16.36 17.344 16.752C17.04 17.136 16.648 17.44 16.168 17.664C15.688 17.888 15.12 18 14.464 18H10.912V9.432ZM12.412 16.776H13.888C14.472 16.776 14.948 16.7 15.316 16.548C15.692 16.388 15.984 16.172 16.192 15.9C16.408 15.62 16.552 15.296 16.624 14.928C16.704 14.552 16.744 14.148 16.744 13.716C16.744 13.284 16.704 12.884 16.624 12.516C16.552 12.14 16.408 11.816 16.192 11.544C15.984 11.264 15.692 11.048 15.316 10.896C14.948 10.736 14.472 10.656 13.888 10.656H12.412V16.776ZM19.4162 9.432H20.7842V10.728H19.4162V9.432ZM19.4162 11.796H20.7842V18H19.4162V11.796ZM27.4707 16.62C27.4707 16.788 27.4907 16.908 27.5307 16.98C27.5787 17.052 27.6667 17.088 27.7947 17.088C27.8347 17.088 27.8827 17.088 27.9387 17.088C27.9947 17.088 28.0587 17.08 28.1307 17.064V18.012C28.0827 18.028 28.0187 18.044 27.9387 18.06C27.8667 18.084 27.7907 18.104 27.7107 18.12C27.6307 18.136 27.5507 18.148 27.4707 18.156C27.3907 18.164 27.3227 18.168 27.2667 18.168C26.9867 18.168 26.7547 18.112 26.5707 18C26.3867 17.888 26.2667 17.692 26.2107 17.412C25.9387 17.676 25.6027 17.868 25.2027 17.988C24.8107 18.108 24.4307 18.168 24.0627 18.168C23.7827 18.168 23.5147 18.128 23.2587 18.048C23.0027 17.976 22.7747 17.868 22.5747 17.724C22.3827 17.572 22.2267 17.384 22.1067 17.16C21.9947 16.928 21.9387 16.66 21.9387 16.356C21.9387 15.972 22.0067 15.66 22.1427 15.42C22.2867 15.18 22.4707 14.992 22.6947 14.856C22.9267 14.72 23.1827 14.624 23.4627 14.568C23.7507 14.504 24.0387 14.456 24.3267 14.424C24.5747 14.376 24.8107 14.344 25.0347 14.328C25.2587 14.304 25.4547 14.268 25.6227 14.22C25.7987 14.172 25.9347 14.1 26.0307 14.004C26.1347 13.9 26.1867 13.748 26.1867 13.548C26.1867 13.372 26.1427 13.228 26.0547 13.116C25.9747 13.004 25.8707 12.92 25.7427 12.864C25.6227 12.8 25.4867 12.76 25.3347 12.744C25.1827 12.72 25.0387 12.708 24.9027 12.708C24.5187 12.708 24.2027 12.788 23.9547 12.948C23.7067 13.108 23.5667 13.356 23.5347 13.692H22.1667C22.1907 13.292 22.2867 12.96 22.4547 12.696C22.6227 12.432 22.8347 12.22 23.0907 12.06C23.3547 11.9 23.6507 11.788 23.9787 11.724C24.3067 11.66 24.6427 11.628 24.9867 11.628C25.2907 11.628 25.5907 11.66 25.8867 11.724C26.1827 11.788 26.4467 11.892 26.6787 12.036C26.9187 12.18 27.1107 12.368 27.2547 12.6C27.3987 12.824 27.4707 13.1 27.4707 13.428V16.62ZM26.1027 14.892C25.8947 15.028 25.6387 15.112 25.3347 15.144C25.0307 15.168 24.7267 15.208 24.4227 15.264C24.2787 15.288 24.1387 15.324 24.0027 15.372C23.8667 15.412 23.7467 15.472 23.6427 15.552C23.5387 15.624 23.4547 15.724 23.3907 15.852C23.3347 15.972 23.3067 16.12 23.3067 16.296C23.3067 16.448 23.3507 16.576 23.4387 16.68C23.5267 16.784 23.6307 16.868 23.7507 16.932C23.8787 16.988 24.0147 17.028 24.1587 17.052C24.3107 17.076 24.4467 17.088 24.5667 17.088C24.7187 17.088 24.8827 17.068 25.0587 17.028C25.2347 16.988 25.3987 16.92 25.5507 16.824C25.7107 16.728 25.8427 16.608 25.9467 16.464C26.0507 16.312 26.1027 16.128 26.1027 15.912V14.892ZM34.6787 17.676C34.6787 18.612 34.4147 19.308 33.8867 19.764C33.3667 20.228 32.6147 20.46 31.6307 20.46C31.3187 20.46 31.0027 20.428 30.6827 20.364C30.3707 20.3 30.0827 20.192 29.8187 20.04C29.5627 19.888 29.3467 19.688 29.1707 19.44C28.9947 19.192 28.8907 18.888 28.8587 18.528H30.2267C30.2667 18.72 30.3347 18.876 30.4307 18.996C30.5267 19.116 30.6387 19.208 30.7667 19.272C30.9027 19.344 31.0507 19.388 31.2107 19.404C31.3707 19.428 31.5387 19.44 31.7147 19.44C32.2667 19.44 32.6707 19.304 32.9267 19.032C33.1827 18.76 33.3107 18.368 33.3107 17.856V16.908H33.2867C33.0947 17.252 32.8307 17.52 32.4947 17.712C32.1667 17.904 31.8107 18 31.4267 18C30.9307 18 30.5067 17.916 30.1547 17.748C29.8107 17.572 29.5227 17.336 29.2907 17.04C29.0667 16.736 28.9027 16.388 28.7987 15.996C28.6947 15.604 28.6427 15.184 28.6427 14.736C28.6427 14.32 28.7067 13.924 28.8347 13.548C28.9627 13.172 29.1467 12.844 29.3867 12.564C29.6267 12.276 29.9187 12.048 30.2627 11.88C30.6147 11.712 31.0107 11.628 31.4507 11.628C31.8427 11.628 32.2027 11.712 32.5307 11.88C32.8587 12.04 33.1107 12.296 33.2867 12.648H33.3107V11.796H34.6787V17.676ZM31.6427 16.92C31.9467 16.92 32.2027 16.86 32.4107 16.74C32.6267 16.612 32.7987 16.448 32.9267 16.248C33.0627 16.04 33.1587 15.808 33.2147 15.552C33.2787 15.288 33.3107 15.024 33.3107 14.76C33.3107 14.496 33.2787 14.24 33.2147 13.992C33.1507 13.744 33.0507 13.524 32.9147 13.332C32.7867 13.14 32.6147 12.988 32.3987 12.876C32.1907 12.764 31.9387 12.708 31.6427 12.708C31.3387 12.708 31.0827 12.772 30.8747 12.9C30.6667 13.028 30.4987 13.196 30.3707 13.404C30.2427 13.604 30.1507 13.836 30.0947 14.1C30.0387 14.356 30.0107 14.612 30.0107 14.868C30.0107 15.124 30.0427 15.376 30.1067 15.624C30.1707 15.864 30.2667 16.08 30.3947 16.272C30.5307 16.464 30.6987 16.62 30.8987 16.74C31.1067 16.86 31.3547 16.92 31.6427 16.92ZM36.0559 11.796H37.3519V12.708L37.3759 12.732C37.5839 12.388 37.8559 12.12 38.1919 11.928C38.5279 11.728 38.8999 11.628 39.3079 11.628C39.9879 11.628 40.5239 11.804 40.9159 12.156C41.3079 12.508 41.5039 13.036 41.5039 13.74V18H40.1359V14.1C40.1199 13.612 40.0159 13.26 39.8239 13.044C39.6319 12.82 39.3319 12.708 38.9239 12.708C38.6919 12.708 38.4839 12.752 38.2999 12.84C38.1159 12.92 37.9599 13.036 37.8319 13.188C37.7039 13.332 37.6039 13.504 37.5319 13.704C37.4599 13.904 37.4239 14.116 37.4239 14.34V18H36.0559V11.796ZM45.7906 18.168C45.2946 18.168 44.8506 18.088 44.4586 17.928C44.0746 17.76 43.7466 17.532 43.4746 17.244C43.2106 16.956 43.0066 16.612 42.8626 16.212C42.7266 15.812 42.6586 15.372 42.6586 14.892C42.6586 14.42 42.7266 13.984 42.8626 13.584C43.0066 13.184 43.2106 12.84 43.4746 12.552C43.7466 12.264 44.0746 12.04 44.4586 11.88C44.8506 11.712 45.2946 11.628 45.7906 11.628C46.2866 11.628 46.7266 11.712 47.1106 11.88C47.5026 12.04 47.8306 12.264 48.0946 12.552C48.3666 12.84 48.5706 13.184 48.7066 13.584C48.8506 13.984 48.9226 14.42 48.9226 14.892C48.9226 15.372 48.8506 15.812 48.7066 16.212C48.5706 16.612 48.3666 16.956 48.0946 17.244C47.8306 17.532 47.5026 17.76 47.1106 17.928C46.7266 18.088 46.2866 18.168 45.7906 18.168ZM45.7906 17.088C46.0946 17.088 46.3586 17.024 46.5826 16.896C46.8066 16.768 46.9906 16.6 47.1346 16.392C47.2786 16.184 47.3826 15.952 47.4466 15.696C47.5186 15.432 47.5546 15.164 47.5546 14.892C47.5546 14.628 47.5186 14.364 47.4466 14.1C47.3826 13.836 47.2786 13.604 47.1346 13.404C46.9906 13.196 46.8066 13.028 46.5826 12.9C46.3586 12.772 46.0946 12.708 45.7906 12.708C45.4866 12.708 45.2226 12.772 44.9986 12.9C44.7746 13.028 44.5906 13.196 44.4466 13.404C44.3026 13.604 44.1946 13.836 44.1226 14.1C44.0586 14.364 44.0266 14.628 44.0266 14.892C44.0266 15.164 44.0586 15.432 44.1226 15.696C44.1946 15.952 44.3026 16.184 44.4466 16.392C44.5906 16.6 44.7746 16.768 44.9986 16.896C45.2226 17.024 45.4866 17.088 45.7906 17.088ZM51.0918 16.008C51.1318 16.408 51.2838 16.688 51.5478 16.848C51.8118 17.008 52.1278 17.088 52.4958 17.088C52.6238 17.088 52.7678 17.08 52.9278 17.064C53.0958 17.04 53.2518 17 53.3958 16.944C53.5398 16.888 53.6558 16.808 53.7438 16.704C53.8398 16.592 53.8838 16.448 53.8758 16.272C53.8678 16.096 53.8038 15.952 53.6838 15.84C53.5638 15.728 53.4078 15.64 53.2158 15.576C53.0318 15.504 52.8198 15.444 52.5798 15.396C52.3398 15.348 52.0958 15.296 51.8478 15.24C51.5918 15.184 51.3438 15.116 51.1038 15.036C50.8718 14.956 50.6598 14.848 50.4678 14.712C50.2838 14.576 50.1358 14.404 50.0238 14.196C49.9118 13.98 49.8558 13.716 49.8558 13.404C49.8558 13.068 49.9358 12.788 50.0958 12.564C50.2638 12.332 50.4718 12.148 50.7198 12.012C50.9758 11.868 51.2558 11.768 51.5598 11.712C51.8718 11.656 52.1678 11.628 52.4478 11.628C52.7678 11.628 53.0718 11.664 53.3598 11.736C53.6558 11.8 53.9198 11.908 54.1518 12.06C54.3918 12.212 54.5878 12.412 54.7398 12.66C54.8998 12.9 54.9998 13.192 55.0398 13.536H53.6118C53.5478 13.208 53.3958 12.988 53.1558 12.876C52.9238 12.764 52.6558 12.708 52.3518 12.708C52.2558 12.708 52.1398 12.716 52.0038 12.732C51.8758 12.748 51.7518 12.78 51.6318 12.828C51.5198 12.868 51.4238 12.932 51.3438 13.02C51.2638 13.1 51.2238 13.208 51.2238 13.344C51.2238 13.512 51.2798 13.648 51.3918 13.752C51.5118 13.856 51.6638 13.944 51.8478 14.016C52.0398 14.08 52.2558 14.136 52.4958 14.184C52.7358 14.232 52.9838 14.284 53.2398 14.34C53.4878 14.396 53.7318 14.464 53.9718 14.544C54.2118 14.624 54.4238 14.732 54.6078 14.868C54.7998 15.004 54.9518 15.176 55.0638 15.384C55.1838 15.592 55.2438 15.848 55.2438 16.152C55.2438 16.52 55.1598 16.832 54.9918 17.088C54.8238 17.344 54.6038 17.552 54.3318 17.712C54.0678 17.872 53.7718 17.988 53.4438 18.06C53.1158 18.132 52.7918 18.168 52.4718 18.168C52.0798 18.168 51.7158 18.124 51.3798 18.036C51.0518 17.948 50.7638 17.816 50.5158 17.64C50.2758 17.456 50.0838 17.232 49.9398 16.968C49.8038 16.696 49.7318 16.376 49.7238 16.008H51.0918ZM55.6585 11.796H56.6905V9.936H58.0585V11.796H59.2945V12.816H58.0585V16.128C58.0585 16.272 58.0625 16.396 58.0705 16.5C58.0865 16.604 58.1145 16.692 58.1545 16.764C58.2025 16.836 58.2705 16.892 58.3585 16.932C58.4465 16.964 58.5665 16.98 58.7185 16.98C58.8145 16.98 58.9105 16.98 59.0065 16.98C59.1025 16.972 59.1985 16.956 59.2945 16.932V17.988C59.1425 18.004 58.9945 18.02 58.8505 18.036C58.7065 18.052 58.5585 18.06 58.4065 18.06C58.0465 18.06 57.7545 18.028 57.5305 17.964C57.3145 17.892 57.1425 17.792 57.0145 17.664C56.8945 17.528 56.8105 17.36 56.7625 17.16C56.7225 16.96 56.6985 16.732 56.6905 16.476V12.816H55.6585V11.796ZM60.3146 9.432H61.6826V10.728H60.3146V9.432ZM60.3146 11.796H61.6826V18H60.3146V11.796ZM67.3611 13.872C67.3051 13.488 67.1491 13.2 66.8931 13.008C66.6451 12.808 66.3291 12.708 65.9451 12.708C65.7691 12.708 65.5811 12.74 65.3811 12.804C65.1811 12.86 64.9971 12.972 64.8291 13.14C64.6611 13.3 64.5211 13.528 64.4091 13.824C64.2971 14.112 64.2411 14.492 64.2411 14.964C64.2411 15.22 64.2691 15.476 64.3251 15.732C64.3891 15.988 64.4851 16.216 64.6131 16.416C64.7491 16.616 64.9211 16.78 65.1291 16.908C65.3371 17.028 65.5891 17.088 65.8851 17.088C66.2851 17.088 66.6131 16.964 66.8691 16.716C67.1331 16.468 67.2971 16.12 67.3611 15.672H68.7291C68.6011 16.48 68.2931 17.1 67.8051 17.532C67.3251 17.956 66.6851 18.168 65.8851 18.168C65.3971 18.168 64.9651 18.088 64.5891 17.928C64.2211 17.76 63.9091 17.536 63.6531 17.256C63.3971 16.968 63.2011 16.628 63.0651 16.236C62.9371 15.844 62.8731 15.42 62.8731 14.964C62.8731 14.5 62.9371 14.064 63.0651 13.656C63.1931 13.248 63.3851 12.896 63.6411 12.6C63.8971 12.296 64.2131 12.06 64.5891 11.892C64.9731 11.716 65.4211 11.628 65.9331 11.628C66.2931 11.628 66.6331 11.676 66.9531 11.772C67.2811 11.86 67.5691 11.996 67.8171 12.18C68.0731 12.364 68.2811 12.596 68.4411 12.876C68.6011 13.156 68.6971 13.488 68.7291 13.872H67.3611ZM73.1809 11.796H74.4769V12.66H74.5129C74.6169 12.508 74.7289 12.368 74.8489 12.24C74.9689 12.112 75.1009 12.004 75.2449 11.916C75.3969 11.828 75.5689 11.76 75.7609 11.712C75.9529 11.656 76.1729 11.628 76.4209 11.628C76.7969 11.628 77.1449 11.712 77.4649 11.88C77.7929 12.048 78.0249 12.308 78.1609 12.66C78.3929 12.34 78.6609 12.088 78.9649 11.904C79.2689 11.72 79.6489 11.628 80.1049 11.628C80.7609 11.628 81.2689 11.788 81.6289 12.108C81.9969 12.428 82.1809 12.964 82.1809 13.716V18H80.8129V14.376C80.8129 14.128 80.8049 13.904 80.7889 13.704C80.7729 13.496 80.7249 13.32 80.6449 13.176C80.5729 13.024 80.4609 12.908 80.3089 12.828C80.1569 12.748 79.9489 12.708 79.6849 12.708C79.2209 12.708 78.8849 12.852 78.6769 13.14C78.4689 13.428 78.3649 13.836 78.3649 14.364V18H76.9969V14.016C76.9969 13.584 76.9169 13.26 76.7569 13.044C76.6049 12.82 76.3209 12.708 75.9049 12.708C75.7289 12.708 75.5569 12.744 75.3889 12.816C75.2289 12.888 75.0849 12.992 74.9569 13.128C74.8369 13.264 74.7369 13.432 74.6569 13.632C74.5849 13.832 74.5489 14.06 74.5489 14.316V18H73.1809V11.796ZM86.4663 18.168C85.9703 18.168 85.5263 18.088 85.1343 17.928C84.7503 17.76 84.4223 17.532 84.1503 17.244C83.8863 16.956 83.6823 16.612 83.5383 16.212C83.4023 15.812 83.3343 15.372 83.3343 14.892C83.3343 14.42 83.4023 13.984 83.5383 13.584C83.6823 13.184 83.8863 12.84 84.1503 12.552C84.4223 12.264 84.7503 12.04 85.1343 11.88C85.5263 11.712 85.9703 11.628 86.4663 11.628C86.9623 11.628 87.4023 11.712 87.7863 11.88C88.1783 12.04 88.5063 12.264 88.7703 12.552C89.0423 12.84 89.2463 13.184 89.3823 13.584C89.5263 13.984 89.5983 14.42 89.5983 14.892C89.5983 15.372 89.5263 15.812 89.3823 16.212C89.2463 16.612 89.0423 16.956 88.7703 17.244C88.5063 17.532 88.1783 17.76 87.7863 17.928C87.4023 18.088 86.9623 18.168 86.4663 18.168ZM86.4663 17.088C86.7703 17.088 87.0343 17.024 87.2583 16.896C87.4823 16.768 87.6663 16.6 87.8103 16.392C87.9543 16.184 88.0583 15.952 88.1223 15.696C88.1943 15.432 88.2303 15.164 88.2303 14.892C88.2303 14.628 88.1943 14.364 88.1223 14.1C88.0583 13.836 87.9543 13.604 87.8103 13.404C87.6663 13.196 87.4823 13.028 87.2583 12.9C87.0343 12.772 86.7703 12.708 86.4663 12.708C86.1623 12.708 85.8983 12.772 85.6743 12.9C85.4503 13.028 85.2663 13.196 85.1223 13.404C84.9783 13.604 84.8703 13.836 84.7983 14.1C84.7343 14.364 84.7023 14.628 84.7023 14.892C84.7023 15.164 84.7343 15.432 84.7983 15.696C84.8703 15.952 84.9783 16.184 85.1223 16.392C85.2663 16.6 85.4503 16.768 85.6743 16.896C85.8983 17.024 86.1623 17.088 86.4663 17.088ZM96.5796 18H95.2836V17.16H95.2596C95.0756 17.52 94.8076 17.78 94.4556 17.94C94.1036 18.092 93.7316 18.168 93.3396 18.168C92.8516 18.168 92.4236 18.084 92.0556 17.916C91.6956 17.74 91.3956 17.504 91.1556 17.208C90.9156 16.912 90.7356 16.564 90.6156 16.164C90.4956 15.756 90.4356 15.32 90.4356 14.856C90.4356 14.296 90.5116 13.812 90.6636 13.404C90.8156 12.996 91.0156 12.66 91.2636 12.396C91.5196 12.132 91.8076 11.94 92.1276 11.82C92.4556 11.692 92.7876 11.628 93.1236 11.628C93.3156 11.628 93.5116 11.648 93.7116 11.688C93.9116 11.72 94.1036 11.776 94.2876 11.856C94.4716 11.936 94.6396 12.04 94.7916 12.168C94.9516 12.288 95.0836 12.432 95.1876 12.6H95.2116V9.432H96.5796V18ZM91.8036 14.964C91.8036 15.228 91.8356 15.488 91.8996 15.744C91.9716 16 92.0756 16.228 92.2116 16.428C92.3556 16.628 92.5356 16.788 92.7516 16.908C92.9676 17.028 93.2236 17.088 93.5196 17.088C93.8236 17.088 94.0836 17.024 94.2996 16.896C94.5236 16.768 94.7036 16.6 94.8396 16.392C94.9836 16.184 95.0876 15.952 95.1516 15.696C95.2236 15.432 95.2596 15.164 95.2596 14.892C95.2596 14.204 95.1036 13.668 94.7916 13.284C94.4876 12.9 94.0716 12.708 93.5436 12.708C93.2236 12.708 92.9516 12.776 92.7276 12.912C92.5116 13.04 92.3316 13.212 92.1876 13.428C92.0516 13.636 91.9516 13.876 91.8876 14.148C91.8316 14.412 91.8036 14.684 91.8036 14.964ZM102.332 14.352C102.316 14.136 102.268 13.928 102.188 13.728C102.116 13.528 102.012 13.356 101.876 13.212C101.748 13.06 101.588 12.94 101.396 12.852C101.212 12.756 101.004 12.708 100.772 12.708C100.532 12.708 100.312 12.752 100.112 12.84C99.9196 12.92 99.7516 13.036 99.6076 13.188C99.4716 13.332 99.3596 13.504 99.2716 13.704C99.1916 13.904 99.1476 14.12 99.1396 14.352H102.332ZM99.1396 15.252C99.1396 15.492 99.1716 15.724 99.2356 15.948C99.3076 16.172 99.4116 16.368 99.5476 16.536C99.6836 16.704 99.8556 16.84 100.064 16.944C100.272 17.04 100.52 17.088 100.808 17.088C101.208 17.088 101.528 17.004 101.768 16.836C102.016 16.66 102.2 16.4 102.32 16.056H103.616C103.544 16.392 103.42 16.692 103.244 16.956C103.068 17.22 102.856 17.444 102.608 17.628C102.36 17.804 102.08 17.936 101.768 18.024C101.464 18.12 101.144 18.168 100.808 18.168C100.32 18.168 99.8876 18.088 99.5116 17.928C99.1356 17.768 98.8156 17.544 98.5516 17.256C98.2956 16.968 98.0996 16.624 97.9636 16.224C97.8356 15.824 97.7716 15.384 97.7716 14.904C97.7716 14.464 97.8396 14.048 97.9756 13.656C98.1196 13.256 98.3196 12.908 98.5756 12.612C98.8396 12.308 99.1556 12.068 99.5236 11.892C99.8916 11.716 100.308 11.628 100.772 11.628C101.26 11.628 101.696 11.732 102.08 11.94C102.472 12.14 102.796 12.408 103.052 12.744C103.308 13.08 103.492 13.468 103.604 13.908C103.724 14.34 103.756 14.788 103.7 15.252H99.1396Z" fill="#FFA500"/>
<path d="M124 14.2C124 14.1 124 14 124 14C123.9 13.5 123.5 13.2 123 13.2C122.6 13.2 122.3 13.4 122.2 13.7H120.3L119.5 8.4C119.5 8.2 119.2 8 119 8C118.7 8 118.5 8.2 118.5 8.4L117.6 15L116.9 10.3C116.9 10.1 116.7 9.9 116.4 9.9C116.1 9.9 116 10 115.9 10.2L115.1 14L114.6 12.2C114.6 12 114.4 11.9 114.2 11.8C114 11.8 113.8 11.9 113.7 12.1L112.9 13.6H110.5C110.2 13.6 110 13.8 110 14.1C110 14.4 110.2 14.6 110.5 14.6H113.2C113.4 14.6 113.5 14.5 113.6 14.3L114 13.7L114.6 16.3C114.7 16.5 114.9 16.7 115.1 16.7C115.3 16.7 115.5 16.5 115.6 16.3L116.3 13.1L117.1 18.6C117.1 18.8 117.3 19 117.6 19C117.8 19 118.1 18.8 118.1 18.6L119 12.1L119.3 14.3C119.3 14.5 119.5 14.7 119.8 14.7H122.1C122.3 15 122.6 15.2 123 15.2C123.5 15.2 123.9 14.9 124 14.4C124 14.3 124 14.2 124 14.2Z" fill="#FFA500"/>
</svg>
