<svg width="202" height="22" viewBox="0 0 202 22" version="1.1" xmlns="http://www.w3.org/2000/svg" xmlns:xlink="http://www.w3.org/1999/xlink">
<title>A Ranorex Product</title>
<desc>Created using Figma</desc>
<g id="Canvas" transform="translate(-1205 -462)">
<g id="A Ranorex Product">
<g id="A new product.">
<use xlink:href="#path0_fill" transform="translate(1223 467)"/>
</g>
<g id="Ranorex Company Logo">
<g id="Group">
<g id="Vector">
<use xlink:href="#path1_fill" transform="translate(1264.94 472.925)" fill="#DF2027"/>
</g>
<g id="Vector">
<use xlink:href="#path2_fill" transform="translate(1253 462)" fill="#DF2027"/>
</g>
<g id="Vector">
<use xlink:href="#path3_fill" transform="translate(1267.77 478.823)" fill="#FFFFFF"/>
</g>
<g id="Vector">
<use xlink:href="#path4_fill" transform="translate(1265.09 473.031)" fill="#DF2027"/>
</g>
<g id="Vector">
<use xlink:href="#path5_fill" transform="translate(1253.19 463.01)"/>
</g>
<g id="Vector">
<use xlink:href="#path6_fill" transform="translate(1253.63 462.785)" fill="#FFFFFF"/>
</g>
<g id="Vector">
<use xlink:href="#path7_fill" transform="translate(1253.31 462.304)" fill="#DF2027"/>
</g>
<g id="Vector">
<use xlink:href="#path8_fill" transform="translate(1278.26 468.277)"/>
</g>
<g id="Group">
<g id="Vector">
<use xlink:href="#path9_fill" transform="translate(1348.35 468.246)"/>
</g>
</g>
<g id="Vector">
<use xlink:href="#path10_fill" transform="translate(1253.94 463.628)" fill="#FFFFFF"/>
</g>
</g>
</g>
</g>
</g>
<defs>
<path id="path0_fill" d="M 2.15777 7.33L 2.47777 6.33C 2.70777 5.6 2.91777 4.88 3.12777 4.12L 3.16777 4.12C 3.37777 4.88 3.58777 5.6 3.81777 6.33L 4.12777 7.33L 2.15777 7.33ZM 4.96777 10L 5.84777 10L 3.62777 3.44L 2.68777 3.44L 0.467773 10L 1.31777 10L 1.94777 8L 4.33777 8L 4.96777 10ZM 8.69012 10L 9.51012 10L 9.51012 6.48C 10.0001 5.99 10.3401 5.73 10.8401 5.73C 11.4801 5.73 11.7601 6.12 11.7601 7.03L 11.7601 10L 12.5801 10L 12.5801 6.92C 12.5801 5.68 12.1201 5.02 11.1001 5.02C 10.4301 5.02 9.93012 5.38 9.47012 5.84L 9.44012 5.84L 9.37012 5.14L 8.69012 5.14L 8.69012 10ZM 13.7989 7.58C 13.7989 9.17 14.8289 10.12 16.1289 10.12C 16.7889 10.12 17.3089 9.89 17.7289 9.62L 17.4389 9.08C 17.0789 9.31 16.6889 9.46 16.2289 9.46C 15.2989 9.46 14.6689 8.8 14.6089 7.75L 17.8889 7.75C 17.9089 7.63 17.9189 7.47 17.9189 7.3C 17.9189 5.91 17.2189 5.02 15.9789 5.02C 14.8689 5.02 13.7989 5.99 13.7989 7.58ZM 14.5989 7.21C 14.6989 6.23 15.3189 5.67 15.9989 5.67C 16.7589 5.67 17.1989 6.22 17.1989 7.21L 14.5989 7.21ZM 19.9386 10L 20.8986 10L 21.5786 7.4C 21.7086 6.94 21.8086 6.48 21.9186 5.99L 21.9586 5.99C 22.0786 6.48 22.1686 6.93 22.2886 7.39L 22.9886 10L 23.9886 10L 25.2886 5.14L 24.5086 5.14L 23.7986 7.95C 23.6986 8.41 23.6086 8.85 23.4986 9.3L 23.4586 9.3C 23.3486 8.85 23.2386 8.41 23.1186 7.95L 22.3586 5.14L 21.5586 5.14L 20.8086 7.95C 20.6886 8.4 20.5886 8.85 20.4786 9.3L 20.4386 9.3C 20.3486 8.85 20.2586 8.41 20.1486 7.95L 19.4286 5.14L 18.5886 5.14L 19.9386 10ZM 132.264 9.56C 132.714 9.91 133.164 10.12 133.614 10.12C 134.724 10.12 135.714 9.15 135.714 7.5C 135.714 5.99 135.044 5.02 133.794 5.02C 133.224 5.02 132.684 5.33 132.244 5.7L 132.214 5.7L 132.144 5.14L 131.464 5.14L 131.464 12.05L 132.284 12.05L 132.284 10.41L 132.264 9.56ZM 132.284 8.92L 132.284 6.37C 132.764 5.94 133.174 5.71 133.584 5.71C 134.504 5.71 134.864 6.43 134.864 7.5C 134.864 8.7 134.274 9.43 133.474 9.43C 133.154 9.43 132.724 9.29 132.284 8.92ZM 137.01 10L 137.83 10L 137.83 6.88C 138.16 6.06 138.65 5.76 139.06 5.76C 139.26 5.76 139.37 5.79 139.53 5.84L 139.69 5.12C 139.53 5.05 139.38 5.02 139.17 5.02C 138.62 5.02 138.12 5.41 137.79 6.02L 137.76 6.02L 137.69 5.14L 137.01 5.14L 137.01 10ZM 140.02 7.58C 140.02 9.19 141.08 10.12 142.27 10.12C 143.46 10.12 144.52 9.19 144.52 7.58C 144.52 5.95 143.46 5.02 142.27 5.02C 141.08 5.02 140.02 5.95 140.02 7.58ZM 140.87 7.58C 140.87 6.46 141.44 5.7 142.27 5.7C 143.11 5.7 143.67 6.46 143.67 7.58C 143.67 8.69 143.11 9.44 142.27 9.44C 141.44 9.44 140.87 8.69 140.87 7.58ZM 145.449 7.58C 145.449 9.2 146.239 10.12 147.459 10.12C 148.029 10.12 148.549 9.8 148.929 9.43L 148.959 9.43L 149.029 10L 149.709 10L 149.709 2.88L 148.879 2.88L 148.879 4.75L 148.919 5.58C 148.489 5.23 148.119 5.02 147.559 5.02C 146.449 5.02 145.449 6 145.449 7.58ZM 146.299 7.57C 146.299 6.46 146.919 5.71 147.699 5.71C 148.099 5.71 148.469 5.85 148.879 6.22L 148.879 8.76C 148.479 9.21 148.089 9.43 147.639 9.43C 146.789 9.43 146.299 8.73 146.299 7.57ZM 151.276 8.22C 151.276 9.46 151.736 10.12 152.766 10.12C 153.436 10.12 153.916 9.77 154.366 9.24L 154.396 9.24L 154.466 10L 155.146 10L 155.146 5.14L 154.326 5.14L 154.326 8.59C 153.866 9.16 153.516 9.41 153.016 9.41C 152.376 9.41 152.106 9.02 152.106 8.11L 152.106 5.14L 151.276 5.14L 151.276 8.22ZM 156.426 7.58C 156.426 9.19 157.416 10.12 158.706 10.12C 159.286 10.12 159.846 9.88 160.286 9.49L 159.916 8.95C 159.626 9.21 159.236 9.44 158.776 9.44C 157.886 9.44 157.276 8.69 157.276 7.58C 157.276 6.46 157.916 5.7 158.796 5.7C 159.186 5.7 159.486 5.88 159.776 6.13L 160.186 5.6C 159.856 5.29 159.406 5.02 158.766 5.02C 157.516 5.02 156.426 5.95 156.426 7.58ZM 161.486 8.5C 161.486 9.46 161.836 10.12 162.876 10.12C 163.176 10.12 163.506 10.03 163.776 9.94L 163.616 9.32C 163.456 9.38 163.236 9.45 163.066 9.45C 162.506 9.45 162.316 9.11 162.316 8.51L 162.316 5.81L 163.626 5.81L 163.626 5.14L 162.316 5.14L 162.316 3.78L 161.626 3.78L 161.526 5.14L 160.766 5.19L 160.766 5.81L 161.486 5.81L 161.486 8.5ZM 164.692 9.5C 164.692 9.86 164.962 10.12 165.292 10.12C 165.612 10.12 165.882 9.86 165.882 9.5C 165.882 9.12 165.612 8.86 165.292 8.86C 164.962 8.86 164.692 9.12 164.692 9.5Z"/>
<path id="path1_fill" fill-rule="evenodd" d="M 3.19202 -2.29561e-07C 3.19202 -2.29561e-07 6.51954 3.49033 9.2448 4.84433C 9.48571 5.02486 9.71156 5.26558 9.39537 5.83727C 9.07918 6.40896 7.6488 8.98157 5.6312 9.9745C 4.89342 10.3356 4.63746 9.76388 4.35138 9.38777C 4.0653 9.01166 2.69515 6.49923 4.59494e-07 3.12926C 2.64998 0.451335 3.19202 -2.29561e-07 3.19202 -2.29561e-07Z"/>
<path id="path2_fill" d="M 8.24708 10.3235C 8.24708 10.3235 5.50677 7.73589 0.312212 5.04292C -0.335225 4.60663 -0.0642047 2.44022 1.96845 1.11631C 3.83548 -0.0872519 5.70251 -0.102296 5.97353 0.0932822C 6.24455 0.288861 7.6147 2.60571 11.68 7.04384L 11.138 12.7457L 8.24708 10.3235Z"/>
<path id="path3_fill" fill-rule="evenodd" d="M -2.29747e-07 0.120356L 2.39401 3.30979L 3.74912 2.66288L 5.69143 4.59122e-07L -2.29747e-07 0.120356Z"/>
<path id="path4_fill" d="M 8.88345 5.00982C 7.438 4.27264 5.67637 2.99386 2.80054 4.59122e-07C 1.86703 0.887627 0.918458 1.85047 4.59494e-07 2.84341C 2.43918 5.71691 3.74911 8.16917 4.93859 9.463C 5.82694 10.14 8.76299 6.21338 9.01896 5.25053C 9.03401 5.16027 8.97379 5.05496 8.88345 5.00982ZM 5.14939 8.51519C 4.63746 8.19926 3.74912 6.90543 3.38776 6.34878C 3.35764 6.30365 3.41787 6.25852 3.46304 6.2886C 5.31501 7.77801 6.71528 6.87534 7.51329 6.40896C 7.57351 6.37887 7.6488 6.43905 7.60363 6.49923C 7.10676 7.31163 5.76671 8.8913 5.14939 8.51519Z"/>
<path id="path5_fill" fill-rule="evenodd" d="M 16.6096 0.317229C 17.0915 -0.119062 17.5281 -0.0287948 17.9949 0.136695C 19.7264 0.738475 22.7227 2.84471 22.0451 5.4474C 22.015 5.55272 21.9397 5.62794 21.8494 5.67307C 17.242 7.53859 10.6321 13.9175 6.52167 20.8229C 6.46144 20.9282 6.34099 21.0034 6.20548 20.9884C 4.79015 20.868 1.25183 19.514 0.0171817 15.6626C -0.0279884 15.5272 0.0171817 15.3768 0.137635 15.2865C 6.55178 10.6678 16.1429 0.738475 16.6096 0.317229Z"/>
<path id="path6_fill" fill-rule="evenodd" d="M -2.87184e-08 3.58059C -2.87184e-08 3.58059 0.557097 0.165489 5.01388 -2.86951e-08C 6.73034 1.94074 9.06413 4.76911 9.06413 4.76911L -2.87184e-08 3.58059Z"/>
<path id="path7_fill" d="M 5.35924 0.0149357C 2.43824 -0.225776 -0.452643 2.49728 0.059284 4.27253C 0.0743407 4.34775 0.134567 4.40793 0.209851 4.45307C 3.49221 6.19823 5.88622 8.21419 7.93393 10.0195C 9.34926 11.208 10.5538 12.0505 11.0958 11.5089C 11.7884 10.8319 11.9992 8.09384 11.4873 6.90532C 11.3819 6.78496 11.1711 6.5593 11.0657 6.43894C 9.545 4.6336 7.57257 2.67781 5.55498 0.120247C 5.50981 0.0600693 5.43452 0.0149357 5.35924 0.0149357ZM 0.661552 3.83624C 1.26382 1.23354 4.41067 0.66185 5.11833 0.737072C 5.17856 0.737072 5.23878 0.767161 5.28396 0.827339C 5.67543 1.24859 7.422 3.32473 8.4308 4.58847C 8.46092 4.61856 8.41575 4.64864 8.38563 4.61856C 5.63026 2.15126 3.43198 2.49728 0.797062 3.94155C 0.736835 3.97164 0.646495 3.91146 0.661552 3.83624Z"/>
<path id="path8_fill" d="M 70.1491 11.2232L 67.8605 11.2232L 64.804 7.98863L 61.7324 11.2232L 59.6245 11.2232L 63.8253 7.02578L 59.6546 2.81332L 61.9432 2.81332L 64.9847 5.98771L 68.0261 2.81332L 70.1491 2.81332L 65.9182 6.96561L 70.1491 11.2232ZM 57.1702 4.34786C 56.7035 3.94166 55.9808 3.73104 55.0171 3.73104C 54.0385 3.73104 53.2706 3.95671 52.6984 4.40804C 52.1263 4.85938 51.795 5.41602 51.7197 6.07798L 57.893 6.07798C 57.8779 5.3408 57.637 4.75406 57.1702 4.34786ZM 51.7197 7.16119C 51.7197 7.6727 51.8251 8.12403 52.0209 8.51519C 52.2166 8.90635 52.4876 9.20724 52.8339 9.46299C 53.1652 9.70371 53.5717 9.88424 54.0234 10.0046C 54.4902 10.125 54.987 10.1851 55.5441 10.1851C 56.2819 10.1851 57.0197 10.0648 57.7575 9.83911C 58.4952 9.61344 59.0222 9.38777 59.3384 9.1621L 59.4287 9.1621L 59.4287 10.7117C 58.8114 10.9073 58.1941 11.0878 57.5617 11.2232C 56.9293 11.3586 56.2518 11.4338 55.5592 11.4338C 53.7674 11.4338 52.3822 11.0577 51.3734 10.3055C 50.3646 9.55326 49.8678 8.47006 49.8678 7.08596C 49.8678 5.71691 50.3496 4.61866 51.3132 3.80626C 52.2768 2.99386 53.5416 2.58766 55.1075 2.58766C 56.5529 2.58766 57.6822 2.91863 58.4651 3.58059C 59.2481 4.24255 59.6395 5.19036 59.6395 6.40896L 59.6395 7.17623L 51.7197 7.17623L 51.7197 7.16119ZM 49.8678 4.34786C 49.5967 4.30273 49.3408 4.2576 49.0848 4.24255C 48.8288 4.21246 48.5277 4.21246 48.1814 4.21246C 47.6243 4.21246 47.0823 4.30273 46.5553 4.49831C 46.0283 4.69389 45.5314 4.9346 45.0496 5.25053L 45.0496 11.2232L 43.2428 11.2232L 43.2428 2.79828L 45.0496 2.79828L 45.0496 4.04697C 45.7723 3.59564 46.4047 3.2797 46.9618 3.08412C 47.5039 2.90359 48.076 2.79828 48.6482 2.79828C 48.9644 2.79828 49.1902 2.79828 49.3257 2.81332C 49.4612 2.82837 49.672 2.84341 49.9581 2.88855L 49.9581 4.34786L 49.8678 4.34786ZM 39.3281 4.58857C 38.786 4.06202 38.0181 3.79122 37.0545 3.79122C 36.0758 3.79122 35.3079 4.06202 34.7659 4.58857C 34.2239 5.11513 33.9528 5.92754 33.9528 7.02578C 33.9528 8.0789 34.2239 8.87626 34.7659 9.43291C 35.3079 9.97451 36.0758 10.2453 37.0545 10.2453C 38.0181 10.2453 38.771 9.97451 39.3281 9.43291C 39.8701 8.8913 40.1562 8.09394 40.1562 7.02578C 40.1411 5.92754 39.8701 5.11513 39.3281 4.58857ZM 40.6681 10.2754C 39.7647 11.0728 38.5602 11.4639 37.0545 11.4639C 35.5338 11.4639 34.3142 11.0728 33.4258 10.2754C 32.5224 9.47804 32.0858 8.39484 32.0858 7.02578C 32.0858 5.65673 32.5375 4.57353 33.4258 3.77617C 34.3292 2.97881 35.5338 2.58766 37.0545 2.58766C 38.5602 2.58766 39.7647 2.97881 40.6681 3.77617C 41.5715 4.57353 42.0232 5.65673 42.0232 7.02578C 42.0082 8.39484 41.5565 9.47804 40.6681 10.2754ZM 29.1046 11.2232L 29.1046 6.43905C 29.1046 6.04789 29.0745 5.68682 29.0142 5.35584C 28.954 5.00982 28.8486 4.75406 28.698 4.55849C 28.5324 4.34786 28.3066 4.19742 28.0054 4.09211C 27.7043 3.98679 27.3128 3.94166 26.831 3.94166C 26.3341 3.94166 25.8222 4.03193 25.2802 4.22751C 24.7381 4.42309 24.2262 4.6638 23.7293 4.96469L 23.7293 11.2533L 21.9225 11.2533L 21.9225 2.82837L 23.7293 2.82837L 23.7293 3.76113C 24.3015 3.40006 24.8736 3.11421 25.491 2.90359C 26.0932 2.69297 26.7106 2.58766 27.358 2.58766C 28.5174 2.58766 29.4057 2.85846 30.023 3.4151C 30.6404 3.95671 30.9415 4.75406 30.9415 5.77709L 30.9415 11.2382L 29.1046 11.2382L 29.1046 11.2232ZM 18.7606 6.81516C 18.2035 6.84525 17.5561 6.87534 16.8033 6.93552C 16.0504 6.98065 15.4632 7.05587 15.0266 7.16119C 14.4996 7.28154 14.078 7.46208 13.7618 7.70279C 13.4456 7.9435 13.28 8.28952 13.28 8.71077C 13.28 9.19219 13.4607 9.55326 13.8371 9.79397C 14.2135 10.0347 14.7857 10.155 15.5385 10.155C 16.1709 10.155 16.7581 10.0648 17.2851 9.8692C 17.8121 9.67362 18.2939 9.44795 18.7456 9.17715L 18.7456 6.81516L 18.7606 6.81516ZM 18.7606 11.2232L 18.7606 10.3205C 18.595 10.4108 18.3842 10.5312 18.1132 10.6816C 17.8422 10.832 17.5712 10.9524 17.3152 11.0427C 17.0141 11.163 16.6678 11.2533 16.2763 11.3285C 15.8848 11.4037 15.418 11.4489 14.8911 11.4489C 13.9124 11.4489 13.0993 11.1931 12.4218 10.6966C 11.7442 10.2002 11.413 9.55326 11.413 8.77095C 11.413 8.13908 11.5936 7.61252 11.94 7.22136C 12.2863 6.83021 12.7831 6.51427 13.4456 6.2886C 14.1081 6.06294 14.8911 5.91249 15.8095 5.82222C 16.728 5.747 17.7217 5.68682 18.7757 5.64169L 18.7757 5.41602C 18.7757 5.10009 18.7004 4.82929 18.5649 4.61866C 18.4143 4.40804 18.2186 4.24255 17.9476 4.12219C 17.6916 4.00184 17.3754 3.92662 17.0291 3.88148C 16.6678 3.83635 16.2913 3.8213 15.8999 3.8213C 15.418 3.8213 14.8911 3.86644 14.3039 3.97175C 13.7166 4.07706 13.1144 4.21246 12.4971 4.393L 12.4067 4.393L 12.4067 2.94872C 12.753 2.8735 13.2649 2.78323 13.9425 2.70801C 14.605 2.61774 15.2675 2.57261 15.9149 2.57261C 16.6678 2.57261 17.3302 2.61774 17.9024 2.72306C 18.4595 2.82837 18.9564 2.99386 19.3629 3.21952C 19.7694 3.44519 20.0706 3.74608 20.2814 4.12219C 20.4922 4.48326 20.5975 4.94964 20.5975 5.49124L 20.5975 11.2082L 18.7606 11.2082L 18.7606 11.2232ZM 7.21215 2.30181C 7.06159 2.04605 6.83574 1.85047 6.48943 1.66994C 6.21841 1.5195 5.88716 1.42923 5.51075 1.36905C 5.13433 1.30887 4.68263 1.27878 4.1707 1.27878L 1.92726 1.27878L 1.92726 5.52133L 3.85451 5.52133C 4.45678 5.52133 4.98376 5.4762 5.43546 5.40098C 5.88716 5.31071 6.26358 5.16027 6.57977 4.9346C 6.86585 4.72398 7.07664 4.48326 7.22721 4.21246C 7.36272 3.94166 7.438 3.59564 7.438 3.17439C 7.42295 2.84341 7.36272 2.55757 7.21215 2.30181ZM 6.48943 6.31869L 11.8948 11.2232L 9.41043 11.2232L 4.60735 6.75498L 1.9122 6.75498L 1.9122 11.2232L 4.59494e-07 11.2232L 4.59494e-07 1.1478e-07L 4.02014 1.1478e-07C 4.89342 1.1478e-07 5.61614 0.0451333 6.1883 0.1354C 6.76045 0.225667 7.28744 0.376113 7.75419 0.60178C 8.28118 0.857537 8.68771 1.17347 8.97379 1.56463C 9.25986 1.95579 9.41043 2.45225 9.41043 3.03899C 9.41043 3.85139 9.15447 4.5284 8.62748 5.07C 8.11556 5.62665 7.40789 6.04789 6.48943 6.31869Z"/>
<path id="path9_fill" d="M 1.61106 1.12834C 1.59601 1.15843 1.58095 1.18852 1.55083 1.2186C 1.52072 1.24869 1.49061 1.26374 1.44544 1.26374C 1.40027 1.27878 1.34004 1.27878 1.27982 1.27878L 1.08408 1.27878L 1.08408 0.797359L 1.30993 0.797359C 1.37016 0.797359 1.41533 0.797359 1.44544 0.812403C 1.47556 0.812403 1.52072 0.827447 1.55083 0.842492C 1.58095 0.857536 1.61106 0.887625 1.62612 0.917714C 1.64117 0.947803 1.64118 0.977893 1.64118 1.02303C 1.64118 1.05312 1.62612 1.0832 1.61106 1.12834ZM 1.58095 1.39914C 1.68635 1.35401 1.76163 1.30887 1.82186 1.24869C 1.88209 1.18852 1.9122 1.09825 1.9122 1.00798C 1.9122 0.932759 1.89714 0.872581 1.86703 0.827448C 1.83692 0.782314 1.79174 0.737181 1.73152 0.707092C 1.67129 0.677003 1.61106 0.661958 1.55083 0.646913C 1.49061 0.631869 1.41533 0.631869 1.30993 0.631869L 0.828115 0.631869L 0.828115 2.03101L 1.08408 2.03101L 1.08408 1.48941L 1.32498 1.48941L 1.83691 2.03101L 2.18322 2.03101L 1.58095 1.39914ZM 2.13805 2.15136C 1.9122 2.37703 1.64117 2.49739 1.32498 2.49739C 1.00879 2.49739 0.737779 2.37703 0.511929 2.15136C 0.286079 1.9257 0.18068 1.6549 0.18068 1.33896C 0.18068 1.02303 0.286079 0.752225 0.511929 0.526558C 0.737779 0.30089 1.00879 0.180534 1.32498 0.180534C 1.64117 0.180534 1.9122 0.30089 2.13805 0.526558C 2.3639 0.752225 2.4693 1.02303 2.4693 1.33896C 2.4693 1.6549 2.3639 1.9257 2.13805 2.15136ZM 2.2585 0.391157C 2.00254 0.1354 1.68634 0 1.32498 0C 0.963623 0 0.647441 0.1354 0.391477 0.391157C 0.135514 0.646913 -1.83797e-06 0.962848 -1.83797e-06 1.32392C -1.83797e-06 1.68498 0.135514 2.00092 0.391477 2.25668C 0.647441 2.51243 0.963623 2.64783 1.32498 2.64783C 1.68634 2.64783 2.00254 2.51243 2.2585 2.25668C 2.51446 2.00092 2.64998 1.68498 2.64998 1.32392C 2.64998 0.962848 2.51446 0.661958 2.2585 0.391157Z"/>
<path id="path10_fill" fill-rule="evenodd" d="M 16.472 0.000267488C 16.2311 -0.0298215 13.7769 2.48261 10.5397 5.62691C 10.4795 5.68709 9.24481 6.87561 9.59111 7.97386C 9.86213 9.29777 9.78685 10.1102 9.21469 10.05C 8.86839 10.0049 7.52834 8.87653 7.30249 8.69599C 4.8332 11.0128 2.40907 13.1793 0.0903401 14.9094C 0.0301134 14.9545 2.87184e-08 15.0297 2.87184e-08 15.105C 0.27102 16.6244 3.41787 19.4528 5.19456 19.5732C 5.26984 19.5732 5.34512 19.5431 5.39029 19.4679C 8.92862 14.0067 16.4419 6.21365 20.3717 4.60389C 20.462 4.5738 20.5223 4.49857 20.5373 4.40831C 20.989 1.68525 17.3604 0.120624 16.472 0.000267488ZM 5.19456 18.5201C 4.92354 18.836 4.03519 18.5802 2.52952 17.3917C 1.59601 16.6545 1.08408 15.812 0.903401 15.466C 0.873288 15.4058 0.933515 15.3607 0.993741 15.3758C 3.70395 16.7298 4.65252 16.6244 8.4468 14.3377C 8.49197 14.3076 8.5522 14.3678 8.50703 14.4129C 6.48943 16.7598 5.46558 18.2192 5.19456 18.5201ZM 14.5899 2.72332C 14.5448 2.75341 14.4845 2.70828 14.5146 2.66315C 15.0416 1.91092 16.3666 0.707359 16.7129 0.812671C 18.0831 1.24896 19.1672 2.5127 19.5737 3.0543C 19.6189 3.11448 19.5436 3.1897 19.4834 3.15961C 16.472 1.61003 15.2524 2.21181 14.5899 2.72332Z"/>
</defs>
</svg>
