<svg width="175" height="48" viewBox="0 0 175 48" version="1.1" xmlns="http://www.w3.org/2000/svg" xmlns:xlink="http://www.w3.org/1999/xlink">
<title>Ranorex Selocity Logo</title>
<desc>Created using Figma</desc>
<g id="Canvas" transform="translate(-1156 -55)">
<g id="Ranorex Selocity Logo">
<g id="Vector">
<use xlink:href="#path0_fill" transform="translate(1178.11 64.6421)"/>
</g>
<g id="Vector">
<use xlink:href="#path1_fill" transform="translate(1186.71 72.8049)" fill="#FFFFFF"/>
</g>
<g id="Vector">
<use xlink:href="#path2_fill" transform="translate(1196.79 75.8486)" fill="#FFFFFF"/>
</g>
<g id="Vector">
<use xlink:href="#path3_fill" transform="translate(1156 55)" fill="#2E86AB"/>
</g>
<g id="Vector">
<use xlink:href="#path4_fill" transform="translate(1156.21 55.0001)" fill="url(#paint4_linear)"/>
</g>
<g id="Vector" opacity="0.5">
<use xlink:href="#path5_fill" transform="translate(1156 59.8087)" fill="url(#paint5_linear)"/>
</g>
<g id="Vector" opacity="0.5">
<use xlink:href="#path6_fill" transform="translate(1174.58 79.0652)" fill="url(#paint6_linear)"/>
</g>
<g id="Vector">
<use xlink:href="#path7_fill" transform="translate(1157.69 94.2839)" fill="url(#paint7_linear)"/>
</g>
<g id="Vector">
<use xlink:href="#path8_fill" transform="translate(1158.31 95.1486)" fill="url(#paint8_linear)"/>
</g>
<g id="Vector">
<use xlink:href="#path9_fill" transform="translate(1174.02 89.3032)" fill="url(#paint9_linear)"/>
</g>
<g id="Group" opacity="0.9">
<g id="Vector" opacity="0.9">
<use xlink:href="#path10_fill" transform="translate(1177.51 56.3725)" fill="url(#paint10_linear)"/>
</g>
</g>
<g id="Vector">
<use xlink:href="#path11_fill" transform="translate(1215.25 74.0846)"/>
</g>
<g id="Vector">
<use xlink:href="#path12_fill" transform="translate(1224.64 76.6441)"/>
</g>
<g id="Vector">
<use xlink:href="#path13_fill" transform="translate(1233.79 76.6441)"/>
</g>
<g id="Vector">
<use xlink:href="#path14_fill" transform="translate(1242.73 76.6441)"/>
</g>
<g id="Vector">
<use xlink:href="#path15_fill" transform="translate(1252.49 76.6699)"/>
</g>
<g id="Vector">
<use xlink:href="#path16_fill" transform="translate(1258.1 76.6441)"/>
</g>
<g id="Vector">
<use xlink:href="#path17_fill" transform="translate(1265.97 76.8516)"/>
</g>
<g id="Vector">
<use xlink:href="#path18_fill" transform="translate(1278.08 73.8079)"/>
</g>
<g id="Vector">
<use xlink:href="#path19_fill" transform="translate(1286.85 76.8516)"/>
</g>
<g id="Vector">
<use xlink:href="#path20_fill" transform="translate(1295.68 72.9778)"/>
</g>
<g id="Vector">
<use xlink:href="#path21_fill" transform="translate(1299.02 76.8516)"/>
</g>
<g id="Vector">
<use xlink:href="#path22_fill" transform="translate(1308.03 76.8516)"/>
</g>
<g id="Vector">
<use xlink:href="#path23_fill" transform="translate(1315.97 73.6696)"/>
</g>
<g id="Vector">
<use xlink:href="#path24_fill" transform="translate(1319.03 74.6726)"/>
</g>
<g id="Vector">
<use xlink:href="#path25_fill" transform="translate(1324.02 77.0246)"/>
</g>
</g>
</g>
<defs>
<linearGradient id="paint4_linear" x1="0" y1="0" x2="1" y2="0" gradientUnits="userSpaceOnUse" gradientTransform="matrix(43.3226 -17.6078 -17.5058 -43.575 6.24139 51.5165)">
<stop offset="0" stop-color="#FFFFFF" stop-opacity="0"/>
<stop offset="0.44" stop-color="#FFFFFF" stop-opacity="0.5"/>
<stop offset="1" stop-color="#FFFFFF" stop-opacity="0"/>
</linearGradient>
<linearGradient id="paint5_linear" x1="0" y1="0" x2="1" y2="0" gradientUnits="userSpaceOnUse" gradientTransform="matrix(12.8587 0 0 -12.9337 -0.0318698 16.1569)">
<stop offset="0" stop-color="#FFFFFF" stop-opacity="0.25"/>
<stop offset="1"/>
</linearGradient>
<linearGradient id="paint6_linear" x1="0" y1="0" x2="1" y2="0" gradientUnits="userSpaceOnUse" gradientTransform="matrix(20.714 0 0 -20.8347 0.0101496 22.4033)">
<stop offset="0"/>
<stop offset="1" stop-color="#FFFFFF" stop-opacity="0.25"/>
</linearGradient>
<linearGradient id="paint7_linear" x1="0" y1="0" x2="1" y2="0" gradientUnits="userSpaceOnUse" gradientTransform="matrix(0.216641 -0.0899283 -0.0894072 -0.217903 0.24477 0.571425)">
<stop offset="0" stop-color="#FFFFFF" stop-opacity="0"/>
<stop offset="0.44" stop-color="#FFFFFF" stop-opacity="0.5"/>
<stop offset="1" stop-color="#FFFFFF" stop-opacity="0"/>
</linearGradient>
<linearGradient id="paint8_linear" x1="0" y1="0" x2="1" y2="0" gradientUnits="userSpaceOnUse" gradientTransform="matrix(0.306048 -0.124516 -0.123795 -0.307831 0.235829 0.598991)">
<stop offset="0" stop-color="#FFFFFF" stop-opacity="0"/>
<stop offset="0.44" stop-color="#FFFFFF" stop-opacity="0.5"/>
<stop offset="1" stop-color="#FFFFFF" stop-opacity="0"/>
</linearGradient>
<linearGradient id="paint9_linear" x1="0" y1="0" x2="1" y2="0" gradientUnits="userSpaceOnUse" gradientTransform="matrix(0.27166 -0.110681 -0.11004 -0.273244 0.308524 0.854768)">
<stop offset="0" stop-color="#FFFFFF" stop-opacity="0"/>
<stop offset="0.44" stop-color="#FFFFFF" stop-opacity="0.5"/>
<stop offset="1" stop-color="#FFFFFF" stop-opacity="0"/>
</linearGradient>
<linearGradient id="paint10_linear" x1="0" y1="0" x2="1" y2="0" gradientUnits="userSpaceOnUse" gradientTransform="matrix(12.7839 -12.8584 -12.7839 -12.8584 6.68849 21.0045)">
<stop offset="0.17" stop-color="#FFFFFF" stop-opacity="0"/>
<stop offset="0.25" stop-color="#FFFFFF" stop-opacity="0.03"/>
<stop offset="0.36" stop-color="#FFFFFF" stop-opacity="0.11"/>
<stop offset="0.5" stop-color="#FFFFFF" stop-opacity="0.24"/>
<stop offset="0.66" stop-color="#FFFFFF" stop-opacity="0.42"/>
<stop offset="0.83" stop-color="#FFFFFF" stop-opacity="0.65"/>
<stop offset="1" stop-color="#FFFFFF" stop-opacity="0.9"/>
</linearGradient>
<path id="path0_fill" d="M 24.8965 -1.31942e-07L 8.28736 -1.31942e-07L 5.2471e-07 14.4923L 8.28736 28.95L 24.8965 28.95L 33.2182 14.4923L 24.8965 -1.31942e-07Z"/>
<path id="path1_fill" d="M 1.23795 9.37329C 2.09763 10.2034 3.19803 10.6876 4.40159 10.7568C 5.7427 10.7568 6.49922 10.1342 6.49922 9.20035C 6.49922 8.19731 5.7427 7.88602 4.60791 7.43638L 2.95732 6.67545C 1.75376 6.15663 0.550198 5.22276 0.550198 3.42419C 0.550198 1.48728 2.23518 0 4.57352 0C 5.94902 0 7.29013 0.553405 8.28736 1.55645L 7.18697 2.93996C 6.46483 2.28279 5.53637 1.90233 4.57352 1.90233C 3.43874 1.90233 2.68222 2.42114 2.68222 3.32043C 2.68222 4.2543 3.61068 4.63476 4.60791 5.01523L 6.22412 5.70699C 7.66839 6.32957 8.66562 7.22885 8.66562 8.99283C 8.66562 10.9643 7.04942 12.59 4.33281 12.59C 2.7166 12.59 1.16917 11.9674 5.2471e-07 10.826L 1.23795 9.37329Z"/>
<path id="path2_fill" d="M 4.16088 -2.63884e-07C 6.60238 -2.63884e-07 7.9091 1.76398 7.9091 4.32348C 7.9091 4.66935 7.87471 4.98064 7.80594 5.32652L 2.06324 5.32652C 2.23518 6.98673 3.2668 7.88602 4.74546 7.88602C 5.50198 7.88602 6.22412 7.6439 6.84309 7.22885L 7.56523 8.57777C 6.63677 9.20035 5.57076 9.54623 4.47036 9.54623C 1.96008 9.54623 -1.04942e-06 7.78225 -1.04942e-06 4.77312C -1.04942e-06 1.76398 2.02886 -2.63884e-07 4.16088 -2.63884e-07ZM 6.05218 3.9776C 6.05218 2.52491 5.43321 1.66021 4.19526 1.66021C 3.12925 1.66021 2.20079 2.45573 2.02886 3.9776L 6.05218 3.9776Z"/>
<path id="path3_fill" d="M 26.6527 0.23426C 31.295 -0.837962 38.0693 1.79071 38.9978 7.70522C 39.2041 9.01956 39.0665 10.4377 37.9661 11.164C 36.8314 11.9249 35.6622 12.7205 34.5274 13.5506C 32.3266 15.1416 30.1602 16.8018 28.0626 18.5312C 25.9306 20.226 23.9361 22.0937 22.0792 24.0998C 24.6582 26.8669 27.6499 29.2188 30.6072 31.467C 32.2234 32.7122 33.874 33.8882 35.559 35.0296C 36.4875 35.6522 37.4159 36.2402 38.3444 36.8627C 39.1009 37.3815 39.3073 38.35 39.3073 39.3185C 39.2729 43.9186 35.2495 46.7548 31.7076 47.6195C 30.7104 47.8617 29.7132 47.9654 28.7159 47.9654C 27.8906 47.9654 26.8934 47.8962 26.1369 47.4812C 25.5523 47.1699 25.2428 46.3052 24.9333 45.7172C 24.4863 44.8871 24.0049 44.057 23.5234 43.2269C 21.4602 39.6298 19.225 36.2056 16.9898 32.7468C 16.5428 32.055 15.6143 31.8475 14.961 32.2971C 14.8234 32.4009 14.6859 32.5047 14.5827 32.6776C 13.8606 33.6461 13.2072 34.6491 12.5539 35.6522C 11.591 37.1048 10.6625 38.5575 9.76848 40.0448C 9.35583 40.7712 8.90879 41.4629 8.53053 42.1893C 8.25543 42.6735 8.01472 43.5036 7.39575 43.5036C 5.8827 43.469 4.30088 42.1893 3.20048 41.117C 1.85938 39.8027 0.896529 38.1079 0.449493 36.2747C 0.208781 35.4446 0.140006 34.5453 0.277556 33.6807C 0.449493 32.8505 1.44673 32.4701 2.03131 32.0204C 7.91156 27.524 10.1467 24.169 10.1467 24.169C 10.1467 24.169 9.6997 23.6502 9.59654 23.5464C 9.01196 22.9239 8.42737 22.3013 7.84278 21.6787C 6.53606 20.3989 5.16057 19.1538 3.7163 17.9778C 2.99416 17.3898 2.27202 16.8364 1.5155 16.283C 1.10285 16.0409 0.724592 15.7642 0.380718 15.4875C 0.140006 15.1762 0.0368438 14.8303 0.0368438 14.4498C -0.169481 12.6513 0.518267 10.7144 1.41234 9.22709C 2.3408 7.67064 3.64752 6.3563 5.19495 5.45702C 5.74515 5.14573 6.57045 4.69609 7.22381 4.83444C 7.70523 4.97279 8.0835 5.94125 8.32421 6.39089C 10.1811 9.50379 12.1756 12.5475 14.342 15.4529C 14.8578 16.1101 15.7863 16.2484 16.4396 15.7296C 16.5428 15.6258 16.646 15.5221 16.7491 15.4183C 17.9527 13.7235 19.7408 11.1986 20.3598 10.2301C 21.3226 8.70827 22.2167 7.15182 23.0764 5.56078C 23.8329 4.10809 24.4863 2.62082 25.2084 1.16813C 25.5523 0.54555 26.0681 0.372611 26.6527 0.23426Z"/>
<path id="path4_fill" d="M 21.9061 24.1343C 22.078 23.9614 22.25 23.7539 22.4219 23.5809C 24.1413 21.8169 25.9638 20.1221 27.8895 18.5657C 29.9871 16.8017 32.1535 15.1415 34.3543 13.585C 35.4891 12.7549 36.6583 11.9594 37.7931 11.1985C 38.8935 10.4721 39.031 9.05404 38.8247 7.7397C 37.8619 1.7906 31.1219 -0.838069 26.4452 0.234152C 25.8607 0.372504 25.3448 0.545443 25.0354 1.16802C 24.3132 2.62071 23.6599 4.14257 22.9033 5.56067C 22.0437 7.15171 21.1496 8.70816 20.1867 10.23C 19.5678 11.2331 17.7796 13.758 16.5761 15.4182C 16.0946 16.0754 15.1662 16.2483 14.4784 15.7641C 14.3753 15.6603 14.2377 15.5565 14.1689 15.4528C 13.5156 14.5881 12.6559 13.4121 11.7618 12.0632C 13.378 15.7295 12.8278 20.4334 9.97368 24.1689C 9.97368 24.1689 7.73849 27.5239 1.85825 32.0203C 1.23928 32.5046 0.242042 32.885 0.0701046 33.7497C -0.067445 34.6144 0.00132983 35.5137 0.242042 36.3438C 0.689078 38.177 1.65192 39.8718 2.99303 41.1861C 4.09343 42.2583 5.67525 43.5381 7.1883 43.5727C 7.77288 43.5727 8.04798 42.7771 8.32308 42.2583C 8.73573 41.532 9.14838 40.8056 9.56103 40.1139C 10.4551 38.6266 11.3836 37.1739 12.3464 35.7212C 12.9998 34.7182 13.6531 33.7497 14.3753 32.7467C 14.8567 32.0895 15.7851 31.9512 16.4385 32.4354C 16.5761 32.5392 16.7136 32.6775 16.8168 32.8159L 18.6393 35.6175C 17.814 31.8474 18.9144 27.5239 21.9061 24.1343Z"/>
<path id="path5_fill" d="M 10.1468 19.3603C 10.1468 19.3603 9.69977 18.8415 9.5966 18.7377C 9.01202 18.1152 8.42743 17.4926 7.84284 16.87C 6.53612 15.5903 5.16063 14.3451 3.71636 13.1691C 2.99422 12.5811 2.27209 12.0277 1.51556 11.4743C 1.10291 11.2322 0.724653 10.9555 0.380779 10.6788C 0.140067 10.3675 0.036905 10.0216 0.036905 9.64116C -0.169419 7.84259 0.518329 5.90567 1.37801 4.4184C 2.30647 2.86195 3.61319 1.54761 5.19501 0.64833C 5.74521 0.337039 6.57051 -0.112602 7.18948 0.0257492C 7.67091 0.1641 8.04917 1.13256 8.28988 1.5822C 9.42467 3.5537 10.7314 5.5598 11.9006 7.2546C 13.5512 10.9209 13.001 15.6248 10.1468 19.3603Z"/>
<path id="path6_fill" d="M 20.7261 15.2878C 20.6917 19.888 16.6684 22.7242 13.1609 23.5889C 12.1637 23.831 11.1664 23.9348 10.1692 23.9348C 9.34389 23.9348 8.34665 23.8656 7.59013 23.4505C 7.00554 23.1392 6.69606 22.2745 6.38657 21.6865C 5.93953 20.8564 5.45811 20.0263 4.97669 19.1962C 3.46364 16.5676 1.88182 14.0426 0.265614 11.5177C -0.559684 7.74767 0.540713 3.3896 3.53242 -5.27768e-07C 6.11147 2.76702 9.10317 5.11899 12.0605 7.3672C 13.6767 8.61236 15.3273 9.78834 17.0123 10.9297C 17.9407 11.5523 18.8692 12.1403 19.7633 12.7629C 20.5198 13.3163 20.7261 14.3193 20.7261 15.2878Z"/>
<path id="path7_fill" d="M 0 -5.27768e-07C 0.171937 0.31129 0.378261 0.587992 0.584586 0.864694C 0.378261 0.587992 0.206324 0.276702 0 -5.27768e-07Z"/>
<path id="path8_fill" d="M 6.55888e-08 -5.27768e-07C 0.206324 0.276702 0.447036 0.553405 0.687748 0.79552C 0.412649 0.518817 0.206324 0.276702 6.55888e-08 -5.27768e-07Z"/>
<path id="path9_fill" d="M 0.825298 1.31434L 0 -1.05554e-06L 0.825298 1.31434Z"/>
<path id="path10_fill" d="M 0.674921 14.9105C 1.29389 15.706 2.29113 16.121 3.28836 16.0864C 4.49192 16.0173 5.31722 15.1872 6.21129 14.4608C 8.41209 12.766 10.6817 11.2096 13.0544 9.75688L 14.8425 8.65007C 15.0832 8.51172 15.5991 8.30419 15.7366 8.06207C 16.1836 7.37032 15.8742 6.09057 15.6678 5.32964C 15.152 3.56566 13.7765 2.11297 12.1947 1.21369C 11.2319 0.660287 10.1658 0.279821 9.06545 0.0722943C 8.3777 0.00311871 7.65556 -0.0314691 6.93343 0.0377065C 6.48639 0.106882 6.03936 0.176058 5.62671 0.279821C 5.31722 0.383585 5.07651 0.625699 4.97335 0.936989C 4.87018 1.28287 4.69825 1.69792 4.62947 1.90545L 4.2856 2.83932C 4.04489 3.49649 3.80418 4.15365 3.52908 4.77623C 2.66939 6.95527 1.67215 9.09971 0.537371 11.1404C -0.150377 12.351 -0.253539 13.7691 0.674921 14.9105Z"/>
<path id="path11_fill" d="M 6.01779 11.1027L 3.64506 6.74462L 1.96008 6.74462L 1.96008 11.1027L -2.09884e-06 11.1027L -2.09884e-06 2.63884e-07L 3.71384 2.63884e-07C 6.01779 2.63884e-07 7.77155 0.795518 7.77155 3.28584C 7.77155 4.98064 6.87748 5.98369 5.57076 6.46792L 8.1842 11.1027L 6.01779 11.1027ZM 1.96008 5.18817L 3.50752 5.18817C 5.02056 5.18817 5.84586 4.531 5.84586 3.28584C 5.84586 2.04068 5.02056 1.55645 3.50752 1.55645L 1.96008 1.55645L 1.96008 5.18817Z"/>
<path id="path12_fill" d="M 4.84862 3.21667C 4.84862 2.31738 4.47036 1.59104 3.33558 1.59104C 2.51028 1.66021 1.68498 1.93692 0.997237 2.38656L 0.275099 1.07222C 1.27233 0.380465 2.4415 0.0345873 3.67945 -5.27768e-07C 5.74269 -5.27768e-07 6.77432 1.27975 6.77432 3.59713L 6.77432 8.54319L 5.1925 8.54319L 5.05495 7.60931L 5.02056 7.60931C 4.26404 8.23189 3.43874 8.71613 2.47589 8.71613C 1.20356 8.7853 0.103161 7.81684 -1.04942e-06 6.50251C -1.04942e-06 6.43333 -1.04942e-06 6.32957 -1.04942e-06 6.26039C -1.04942e-06 4.531 1.47866 3.59713 4.84862 3.21667ZM 3.06048 7.22885C 3.74823 7.22885 4.26404 6.88297 4.84862 6.29498L 4.84862 4.42724C 2.61344 4.70394 1.85692 5.32652 1.85692 6.15663C 1.89131 6.88297 2.37273 7.22885 3.06048 7.22885Z"/>
<path id="path13_fill" d="M 1.04942e-06 0.207527L 1.61621 0.207527L 1.75376 1.31434L 1.82253 1.31434C 2.57906 0.587993 3.40435 -5.27768e-07 4.53914 -5.27768e-07C 6.29289 -5.27768e-07 7.0838 1.21057 7.0838 3.32043L 7.0838 8.54319L 5.15811 8.54319L 5.15811 3.56254C 5.15811 2.17903 4.77985 1.6948 3.85139 1.6948C 3.12925 1.6948 2.64783 2.04068 1.96008 2.73244L 1.96008 8.54319L 0.0343853 8.54319L 1.04942e-06 0.207527Z"/>
<path id="path14_fill" d="M 3.92017 -5.27768e-07C 5.98341 -5.27768e-07 7.87472 1.59104 7.87472 4.39265C 7.87472 7.19426 6.0178 8.75071 3.92017 8.75071C 1.82254 8.75071 1.04942e-06 7.15967 1.04942e-06 4.39265C 1.04942e-06 1.62563 1.85692 -5.27768e-07 3.92017 -5.27768e-07ZM 3.92017 7.15967C 5.12373 7.15967 5.88024 6.05287 5.88024 4.39265C 5.88024 2.73244 5.12373 1.62563 3.92017 1.62563C 2.71661 1.62563 1.99447 2.73244 1.99447 4.39265C 1.99447 6.05287 2.68222 7.15967 3.92017 7.15967Z"/>
<path id="path15_fill" d="M 4.19768e-06 0.181753L 1.61621 0.181753L 1.75375 1.66903L 1.82253 1.66903C 2.40712 0.596807 3.30119 0.00881441 4.16087 0.00881441C 4.47036 -0.0257734 4.81424 0.0434022 5.12372 0.181753L 4.77985 1.87655C 4.50475 1.77279 4.19526 1.7382 3.92017 1.7382C 3.26681 1.7382 2.47589 2.18784 1.96008 3.46759L 1.96008 8.552L 0.0343832 8.552L 4.19768e-06 0.181753Z"/>
<path id="path16_fill" d="M 3.78261 -5.27768e-07C 6.0178 -5.27768e-07 7.22135 1.62563 7.22135 3.94301C 7.22135 4.2543 7.18696 4.56559 7.15258 4.87688L 1.89131 4.87688C 2.06324 6.39874 2.99171 7.22885 4.33281 7.22885C 5.02056 7.22885 5.67393 7.02132 6.25851 6.60627L 6.91187 7.81684C 6.08657 8.37024 5.08933 8.68154 4.0921 8.71613C 1.78814 8.71613 -1.9547e-14 7.0905 -1.9547e-14 4.35806C -1.9547e-14 1.62563 1.85692 -5.27768e-07 3.78261 -5.27768e-07ZM 5.53637 3.63172C 5.53637 2.31738 4.98618 1.52186 3.85139 1.52186C 2.85416 1.52186 2.02885 2.24821 1.85692 3.63172L 5.53637 3.63172Z"/>
<path id="path17_fill" d="M 2.64783 3.9776L 0.171935 2.63884e-07L 2.26957 2.63884e-07L 3.19803 1.59104C 3.43874 2.04068 3.71384 2.5595 3.95455 3.00914L 4.02333 3.00914C 4.22965 2.5595 4.47036 2.04068 4.67669 1.59104L 5.46759 2.63884e-07L 7.46207 2.63884e-07L 5.02056 4.21971L 7.63401 8.33566L 5.53637 8.33566L 4.53914 6.67544C 4.26404 6.19121 3.98894 5.6724 3.67945 5.18817L 3.61068 5.18817C 3.36996 5.6724 3.12925 6.15663 2.88854 6.67544L 2.02885 8.33566L -2.09884e-06 8.33566L 2.64783 3.9776Z"/>
<path id="path18_fill" d="M 0.447034 9.33871C 1.27233 10.2726 2.47589 10.826 3.71384 10.8606C 5.39882 10.8606 6.46483 9.9267 6.46483 8.61236C 6.46483 7.22885 5.57076 6.77921 4.47036 6.26039L 2.78538 5.49946C 1.82254 5.08441 0.550203 4.39265 0.550203 2.73244C 0.550203 1.07222 1.9257 5.27768e-07 3.78262 5.27768e-07C 4.95179 5.27768e-07 6.08657 0.484229 6.87748 1.34892L 6.43044 1.86774C 5.74269 1.10681 4.77985 0.691756 3.78262 0.726344C 2.30396 0.726344 1.34111 1.52186 1.34111 2.73244C 1.34111 4.01218 2.44151 4.531 3.2668 4.87688L 4.95179 5.63781C 6.18973 6.19121 7.29012 6.88297 7.29012 8.61236C 7.29012 10.3418 5.88024 11.6215 3.71384 11.6215C 2.30395 11.6215 0.928462 10.9989 2.09884e-06 9.9267L 0.447034 9.33871Z"/>
<path id="path19_fill" d="M 3.5419 2.63884e-07C 5.46759 2.63884e-07 6.63677 1.38351 6.63677 3.77007C 6.63677 3.9776 6.63676 4.18512 6.60238 4.39265L 0.756519 4.39265C 0.790906 6.43333 1.99447 7.9206 3.81701 7.9206C 4.60792 7.9206 5.36443 7.67849 5.98341 7.19426L 6.29289 7.78225C 5.53637 8.30107 4.6423 8.57777 3.74823 8.57777C 1.68498 8.57777 2.09884e-06 6.98673 2.09884e-06 4.32347C 2.09884e-06 1.66021 1.71937 2.63884e-07 3.5419 2.63884e-07ZM 5.94902 3.80466C 5.94902 1.72939 5.02056 0.657167 3.57629 0.657167C 2.20079 0.657167 0.962845 1.86774 0.790908 3.80466L 5.94902 3.80466Z"/>
<path id="path20_fill" d="M -4.19768e-06 0L 0.756523 0L 0.756523 11.2064C 0.756523 11.5523 0.894072 11.7253 1.1004 11.7253C 1.20356 11.7253 1.30672 11.7253 1.40988 11.6907L 1.54743 12.3133C 1.37549 12.3824 1.20356 12.417 0.997239 12.3824C 0.343878 12.3824 -4.19768e-06 11.9674 -4.19768e-06 11.1027L -4.19768e-06 0Z"/>
<path id="path21_fill" d="M 3.61068 2.63884e-07C 5.57076 2.63884e-07 7.25574 1.55645 7.25574 4.28889C 7.25574 7.02132 5.57076 8.54319 3.61068 8.54319C 1.6506 8.54319 0 6.98673 0 4.28889C 0 1.59104 1.6506 2.63884e-07 3.61068 2.63884e-07ZM 3.61068 7.88602C 5.26127 7.88602 6.46483 6.43333 6.46483 4.28889C 6.46483 2.14444 5.22688 0.657168 3.61068 0.657168C 1.99447 0.657168 0.756527 2.14444 0.756527 4.28889C 0.756527 6.43333 1.96008 7.88602 3.61068 7.88602Z"/>
<path id="path22_fill" d="M 3.67945 2.63884e-07C 4.57352 2.63884e-07 5.43321 0.345878 6.05218 0.968458L 5.60515 1.48728C 5.08933 0.968458 4.40159 0.657168 3.67945 0.62258C 2.02885 0.62258 0.756521 2.10986 0.756521 4.2543C 0.756521 6.39874 1.92569 7.88602 3.71384 7.88602C 4.53914 7.85143 5.29566 7.54014 5.88024 6.95215L 6.2585 7.47096C 5.57076 8.16272 4.6423 8.54319 3.67945 8.54319C 1.58182 8.54319 4.19768e-06 6.98673 4.19768e-06 4.28889C 4.19768e-06 1.59104 1.71937 2.63884e-07 3.67945 2.63884e-07Z"/>
<path id="path23_fill" d="M -4.19768e-06 0.726343C -4.19768e-06 0.345877 0.275103 0.0345878 0.653365 0C 1.03163 0 1.3411 0.276703 1.37549 0.657169C 1.37549 1.03763 1.10039 1.34892 0.722133 1.38351L 0.687744 1.38351C 0.34387 1.4181 0.0343832 1.1414 -4.19768e-06 0.760932C -4.19768e-06 0.760932 -4.19768e-06 0.760931 -4.19768e-06 0.726343ZM 0.309491 3.35502L 1.06601 3.35502L 1.06601 11.4831L 0.309491 11.4831L 0.309491 3.35502Z"/>
<path id="path24_fill" d="M 1.27233 3.00914L 4.19768e-06 3.00914L 4.19768e-06 2.42115L 1.27233 2.35197L 1.3755 5.27768e-07L 2.02886 5.27768e-07L 2.02886 2.35197L 4.40159 2.35197L 4.40159 3.00914L 2.06325 3.00914L 2.06325 8.33566C 2.06325 9.37329 2.30396 10.065 3.43874 10.065C 3.78262 10.0305 4.12649 9.96129 4.43598 9.82293L 4.6423 10.4455C 4.22965 10.6185 3.78261 10.7222 3.33558 10.7568C 1.75376 10.7568 1.30672 9.75376 1.30672 8.30107L 1.27233 3.00914Z"/>
<path id="path25_fill" d="M 1.06601 11.1719C 2.06324 11.1719 2.75099 10.238 3.12925 9.02742L 3.33558 8.30107L 4.19768e-06 2.63884e-07L 0.8253 2.63884e-07L 2.78538 5.11899C 3.02609 5.81075 3.36996 6.67544 3.64506 7.40179L 3.71384 7.40179C 3.95455 6.67544 4.22965 5.81075 4.47037 5.11899L 6.18974 2.63884e-07L 6.98064 2.63884e-07L 3.78262 9.16576C 3.33558 10.5147 2.51028 11.8636 1.06601 11.8636C 0.790906 11.8636 0.515809 11.7944 0.24071 11.6907L 0.412647 11.0335C 0.618971 11.1027 0.825293 11.1719 1.06601 11.1719Z"/>
</defs>
</svg>
