<svg width="146" height="37" viewBox="0 0 146 37" fill="none" xmlns="http://www.w3.org/2000/svg">
<path fill-rule="evenodd" clip-rule="evenodd" d="M19.5957 -1.01694e-07H6.5409L8.24845e-07 11.1699L6.5409 22.3132H19.5957L26.1366 11.1699L19.5957 -1.01694e-07Z" transform="translate(17.373 7.43164)" fill="black"/>
<path d="M-8.24845e-07 -4.06776e-07H1.75685L2.59474 4.79853C2.75691 5.81155 2.91908 6.82458 3.08125 7.8376H3.13531C3.32451 6.82458 3.54073 5.81155 3.75696 4.79853L4.94622 -4.06776e-07H6.43279L7.62204 4.79853C7.83827 5.78489 8.05449 6.82458 8.24369 7.8376H8.29775C8.45992 6.82458 8.59507 5.81155 8.75724 4.79853L9.59512 -4.06776e-07H11.2439L9.40592 9.51709H7.27067L6.08141 4.50529C5.91924 3.75885 5.7841 3.03907 5.64896 2.31929H5.5949C5.45976 3.03907 5.32462 3.78551 5.16245 4.50529L4.00022 9.51709H1.91903L-8.24845e-07 -4.06776e-07Z" transform="translate(21.6709 13.7498)" fill="white"/>
<path d="M1.02708 3.279H4.12422e-07V2.02605L1.10817 1.94607L1.3244 4.06776e-07H2.72988V1.94607H4.56782V3.279H2.72988V5.94485C2.72988 6.79792 3.05422 7.1978 3.75696 7.1978C4.00022 7.1978 4.29753 7.11782 4.51376 7.03785L4.81107 8.26414C4.40565 8.39743 3.91913 8.53072 3.32451 8.53072C1.64874 8.53072 1.02708 7.49104 1.02708 5.94485V3.279Z" transform="translate(33.4824 14.896)" fill="white"/>
<path d="M20.9409 0.180556C24.5897 -0.645858 29.9143 1.38019 30.6441 5.93879C30.8063 6.95182 30.6982 8.04481 29.8333 8.6313C28.9143 9.21779 28.0223 9.83093 27.1304 10.4707C25.4006 11.697 23.6978 12.9766 22.049 14.3096C20.4273 15.6425 18.8056 17.0287 17.3461 18.6016C19.3732 20.7343 21.7247 22.547 24.0492 24.2798C25.3195 25.2395 26.6169 26.1459 27.9413 27.0257C28.671 27.5055 29.4008 27.9587 30.1306 28.4386C30.7252 28.8384 30.9144 29.6115 30.8874 30.3313C30.8603 33.8769 27.698 36.0629 24.9141 36.7294C24.1302 36.916 23.3464 37.0226 22.5626 36.9959C21.9139 36.9959 21.1301 36.9426 20.5355 36.6227C20.103 36.3828 19.8327 35.7163 19.5895 35.2631C19.2381 34.6233 18.8597 33.9835 18.4813 33.3437C16.8596 30.5712 15.1027 27.9321 13.3459 25.2662C12.9134 24.5997 11.9134 24.5731 11.4268 25.2129C10.8592 25.9593 10.3457 26.7324 9.83216 27.4789C9.07537 28.5985 8.3456 29.7182 7.64286 30.8645C7.31851 31.4243 6.99417 31.9575 6.66983 32.5173C6.4536 32.8905 6.23737 33.5303 5.77789 33.5303C4.58863 33.5037 3.34532 32.5173 2.48041 31.6909C1.45333 30.6779 0.669501 29.4249 0.31813 27.9587C0.155959 27.3456 0.0478451 26.5991 0.182988 25.9593C0.345159 25.3195 1.10196 25.0263 1.58847 24.6797C6.21034 21.2141 7.9672 18.6549 7.9672 18.6549C7.9672 18.6549 7.61583 18.255 7.53474 18.175C7.07526 17.6952 6.61577 17.2153 6.15629 16.7355C5.1292 15.6958 4.02104 14.7361 2.91287 13.8564C2.34527 13.4032 1.77767 12.9766 1.18304 12.5501C0.912757 12.3368 0.534358 12.1769 0.291102 11.937C0.101902 11.7503 0.0478451 11.4038 0.0208166 11.1372C-0.114326 9.75096 0.426244 8.25808 1.12899 7.11177C1.85876 5.91213 2.9399 4.87245 4.12915 4.23265C4.56161 3.99272 5.21029 3.6195 5.72383 3.75279C6.10223 3.83277 6.39954 4.60587 6.58874 4.95243C8.18343 7.67159 10.1835 10.3908 11.3458 11.937C11.8323 12.5768 12.7783 12.5501 13.2378 11.9103C14.1838 10.604 15.5892 8.65796 16.0758 7.91152C16.8325 6.73855 17.5353 5.53891 18.211 4.31262C18.8056 3.19297 19.3192 2.04665 19.8868 0.926994C20.076 0.420482 20.4814 0.28719 20.9409 0.180556Z" transform="translate(0.0268555)" fill="#39AAAA"/>
<path d="M17.1703 18.6016C17.3054 18.4683 17.4405 18.3083 17.5757 18.175C18.9271 16.7888 20.4137 15.5092 21.8732 14.3096C23.522 12.95 25.2248 11.6704 26.9546 10.4707C27.8465 9.83093 28.7385 9.21779 29.6574 8.6313C30.5223 8.07147 30.6305 6.97847 30.4683 5.93879C29.7385 1.38019 24.4409 -0.645858 20.765 0.180556C20.3056 0.28719 19.9001 0.420482 19.6569 0.900335C19.0893 2.01999 18.5757 3.19297 17.9811 4.28596C17.3054 5.51226 16.6027 6.71189 15.8459 7.88486C15.3593 8.65796 13.9539 10.5774 13.0079 11.8836C12.5484 12.5234 11.5754 12.5234 11.1159 11.9103C10.6023 11.2438 9.92662 10.3374 9.22388 9.29776C10.4942 12.1236 10.0618 15.7491 7.8184 18.6282C7.8184 18.6282 6.06154 21.1875 1.43967 24.6531C0.980183 24.9996 0.196356 25.3195 0.0612137 25.9593C-0.0739288 26.5991 0.0341852 27.3456 0.196356 27.9587C0.574755 29.4249 1.35858 30.7045 2.35864 31.6909C3.22355 32.5173 4.46686 33.5037 5.65612 33.5303C6.1156 33.5303 6.33183 32.9172 6.54806 32.5173C6.8724 31.9575 7.19674 31.3977 7.52108 30.8645C8.22382 29.7182 8.95359 28.5985 9.71039 27.4789C10.2239 26.7058 10.7375 25.9593 11.3051 25.2129C11.7916 24.5731 12.7646 24.5997 13.2241 25.2662C13.7106 25.986 14.1701 26.7058 14.6566 27.4255C13.9809 24.5464 14.8458 21.2141 17.1703 18.6016Z" transform="translate(0.203125)" fill="url(#paint0_linear)"/>
<path opacity="0.5" d="M7.99423 14.8953C7.99423 14.8953 7.64286 14.4954 7.56177 14.4154C7.10229 13.9356 6.6428 13.4557 6.18332 12.9759C5.15623 11.9629 4.04806 11.0031 2.9399 10.1234C2.3723 9.67022 1.8047 9.24369 1.21007 8.81715C0.912757 8.60388 0.561387 8.44393 0.31813 8.20401C0.101902 8.0174 0.0748737 7.67084 0.0208166 7.40425C-0.114326 6.01801 0.426244 4.52513 1.12899 3.37882C1.85876 2.17919 2.9399 1.1395 4.12915 0.499699C4.56161 0.259773 5.21029 -0.0867877 5.72383 0.0198463C6.10223 0.12648 6.39954 0.872918 6.58874 1.21948C7.48068 2.73901 8.50777 4.25855 9.42674 5.59147C10.67 8.39062 10.2376 12.0162 7.99423 14.8953Z" transform="translate(0 3.73291)" fill="url(#paint1_linear)"/>
<path opacity="0.5" d="M16.2907 11.7831C16.2637 15.3286 13.1014 17.5146 10.3445 18.1811C9.56064 18.3677 8.77681 18.4743 7.99298 18.4477C7.3443 18.4477 6.56047 18.3944 5.96584 18.0745C5.53339 17.8345 5.2631 17.1681 5.01985 16.7149C4.66848 16.0751 4.29008 15.4353 3.91168 14.7955C2.72242 12.7694 1.47911 10.8234 0.208773 8.87728C-0.439911 5.97151 0.425001 2.61253 2.77648 -4.06776e-07C4.80362 2.13268 7.1551 3.94546 9.47955 5.67826C10.7499 6.63797 12.0473 7.54436 13.3717 8.42409C14.1014 8.90394 14.8312 9.35713 15.5339 9.83699C16.1286 10.2635 16.2907 11.0366 16.2907 11.7831Z" transform="translate(14.6235 18.5482)" fill="url(#paint2_linear)"/>
<path d="M0 -4.06776e-07C0.135143 0.239926 0.297314 0.453194 0.459485 0.666462C0.297314 0.453194 0.162171 0.213268 0 -4.06776e-07Z" transform="translate(1.34521 30.278)" fill="url(#paint3_linear)"/>
<path d="M5.15528e-08 -4.06776e-07C0.162171 0.213268 0.351371 0.426536 0.54057 0.613146C0.324342 0.399878 0.162171 0.186609 5.15528e-08 -4.06776e-07Z" transform="translate(1.83203 30.9445)" fill="url(#paint4_linear)"/>
<path d="M0.648685 1.01302C0.648685 1.01302 0.648685 1.03968 0.648685 1.01302C0.432457 0.693121 0.216228 0.34656 0 -8.13553e-07L0.648685 1.01302Z" transform="translate(14.1836 26.4392)" fill="url(#paint5_linear)"/>
<g opacity="0.9">
<path opacity="0.9" d="M0.530488 11.4909C1.017 12.104 1.80083 12.4239 2.58465 12.3973C3.53065 12.344 4.17934 11.7042 4.88208 11.1443C6.58487 9.81141 8.39578 8.63844 10.2608 7.51878C10.7202 7.22553 11.2068 6.95895 11.6662 6.66571C11.8554 6.55907 12.2609 6.39912 12.369 6.21251C12.7203 5.67934 12.4771 4.69298 12.3149 4.13315C11.9095 2.77356 10.8284 1.65391 9.58504 0.960786C8.82824 0.53425 7.99036 0.241007 7.12544 0.0810557C6.58487 0.00108021 6.01728 -0.0255784 5.44968 0.0277386C5.36859 0.0277386 4.80099 0.107714 4.42259 0.214348C4.17934 0.267665 3.99014 0.507592 3.90905 0.72086C3.82797 0.987445 3.69282 1.30735 3.63877 1.44064C3.55768 1.68057 3.44957 1.92049 3.36848 2.16042C3.17928 2.66693 2.99008 3.14678 2.80088 3.6533C2.12517 5.33278 1.36837 6.98561 0.422374 8.55846C-0.118197 9.51817 -0.199282 10.6112 0.530488 11.4909Z" transform="translate(16.9238 1.0592)" fill="url(#paint6_linear)"/>
</g>
<path d="M4.71648 8.25069L2.85684 5.02216H1.53623V8.25069H-1.64498e-06V-3.9098e-07H2.91074C4.71648 -3.9098e-07 6.11795 0.614958 6.11795 2.45983C6.11795 3.71537 5.41722 4.48407 4.36611 4.81717L6.44136 8.25069H4.71648ZM1.53623 3.86911H2.74904C3.93489 3.86911 4.58172 3.38227 4.58172 2.45983C4.58172 1.51177 3.93489 1.17867 2.74904 1.17867H1.53623V3.86911Z" transform="translate(46.3877 14.9384)" fill="white"/>
<path d="M3.82709 2.38296C3.80013 1.71676 3.53062 1.17867 2.64123 1.17867C1.9944 1.17867 1.37452 1.46053 0.80854 1.79363L0.242561 0.819945C0.970246 0.38435 1.88659 -3.9098e-07 2.91074 -3.9098e-07C4.55477 -3.9098e-07 5.33636 0.948061 5.33636 2.66482V6.32895H4.0966L3.9888 5.63712H3.96184C3.36891 6.09834 2.72208 6.48269 1.94049 6.48269C0.808539 6.48269 8.22489e-07 5.73961 8.22489e-07 4.66344C8.22489e-07 3.35665 1.15891 2.66482 3.82709 2.38296ZM2.39867 5.35526C2.93769 5.35526 3.34196 5.09903 3.82709 4.66344V3.27978C2.0483 3.48477 1.48232 3.94598 1.48232 4.56094C1.48232 5.12465 1.85964 5.35526 2.39867 5.35526Z" transform="translate(53.772 16.8601)" fill="white"/>
<path d="M0.026953 0.128117H1.29366L1.40147 0.973684H1.45537C2.0483 0.435596 2.69513 1.9549e-07 3.58453 1.9549e-07C4.98599 1.9549e-07 5.57892 0.896815 5.57892 2.45983V6.35457H4.0427V2.61357C4.0427 1.58864 3.74623 1.20429 3.01855 1.20429C2.45257 1.20429 2.07525 1.46053 1.53622 1.97299V6.30332H0V0.128117H0.026953Z" transform="translate(60.9683 16.8857)" fill="white"/>
<path d="M3.0994 -3.9098e-07C4.74343 -3.9098e-07 6.1988 1.17867 6.1988 3.25416C6.1988 5.30402 4.71648 6.50831 3.0994 6.50831C1.48232 6.50831 0 5.32964 0 3.25416C0.0269513 1.17867 1.48232 -3.9098e-07 3.0994 -3.9098e-07ZM3.0994 5.30402C4.0427 5.30402 4.63563 4.48407 4.63563 3.25416C4.63563 1.99862 4.0427 1.17867 3.0994 1.17867C2.1561 1.17867 1.56317 1.99862 1.56317 3.25416C1.59012 4.48407 2.1561 5.30402 3.0994 5.30402Z" transform="translate(67.9756 16.8601)" fill="white"/>
<path d="M3.28996e-06 0.15374H1.26671L1.37451 1.25554H1.42842C1.88659 0.435596 2.58732 -3.9098e-07 3.26111 -3.9098e-07C3.58452 -3.9098e-07 3.80014 0.0256229 4.01575 0.128116L3.74623 1.38366C3.53062 1.33241 3.34196 1.28116 3.07245 1.28116C2.56038 1.28116 1.94049 1.61427 1.53622 2.56233V6.35457H3.28996e-06V0.15374Z" transform="translate(75.7104 16.8601)" fill="white"/>
<path d="M3.01855 -3.9098e-07C4.79733 -3.9098e-07 5.71368 1.20429 5.71368 2.94668C5.71368 3.22853 5.68672 3.48477 5.65977 3.6385H1.50927C1.64403 4.76593 2.39867 5.38089 3.42282 5.38089C3.9888 5.38089 4.44697 5.22715 4.93209 4.91967L5.44417 5.81648C4.82429 6.20083 4.04269 6.48269 3.2072 6.48269C1.40146 6.48269 -1.64498e-06 5.27839 -1.64498e-06 3.22853C0.0269497 1.22992 1.50928 -3.9098e-07 3.01855 -3.9098e-07ZM4.39307 2.69044C4.39307 1.71676 3.96184 1.1018 3.07245 1.1018C2.29086 1.1018 1.64403 1.63989 1.50927 2.69044H4.39307Z" transform="translate(80.0767 16.8601)" fill="white"/>
<path d="M2.07525 2.94668L0.134757 1.9549e-07H1.77879L2.50647 1.17867C2.69513 1.51177 2.91074 1.89612 3.0994 2.22922H3.15331C3.31501 1.89612 3.50367 1.51177 3.66538 1.17867L4.28526 1.9549e-07H5.87538L3.96185 3.12604L6.03709 6.20083H4.39306L3.58452 4.97091C3.36891 4.61219 3.1533 4.22784 2.91074 3.86911H2.85684C2.66818 4.22784 2.47952 4.58656 2.29086 4.97091L1.59013 6.20083H0L2.07525 2.94668Z" transform="translate(86.3022 17.0138)" fill="white"/>
<path d="M-3.28996e-06 3.9098e-07H0.646835L1.72489 4.89404C1.9405 5.79086 2.12915 6.7133 2.34476 7.61011H2.39867C2.58733 6.7133 2.82989 5.81648 3.07245 4.89404L4.44696 3.9098e-07H5.06685L6.44137 4.89404C6.65698 5.79086 6.89953 6.68767 7.14209 7.61011H7.196C7.38466 6.7133 7.57332 5.81648 7.78893 4.89404L8.86699 3.9098e-07H9.48686L7.51942 8.32756H6.84564L5.2555 2.61357C5.09379 1.94737 4.95904 1.38366 4.79734 0.743075H4.74343C4.60867 1.40928 4.42002 1.97299 4.25831 2.61357L2.69513 8.32756H2.02135L-3.28996e-06 3.9098e-07Z" transform="translate(95.5469 14.8871)" fill="white"/>
<path d="M2.72365 -3.9098e-07C4.23292 -3.9098e-07 5.17622 1.02493 5.17622 2.79294C5.17622 2.94668 5.17622 3.10042 5.14927 3.25416H0.567544C0.594495 4.79155 1.53779 5.86773 2.96621 5.86773C3.66694 5.86773 4.20597 5.66274 4.69109 5.32964L4.93365 5.76523C4.42158 6.04709 3.8556 6.35457 2.93926 6.35457C1.29523 6.35457 0.00156441 5.1759 0.00156441 3.17729C-0.0523382 1.20429 1.29523 -3.9098e-07 2.72365 -3.9098e-07ZM4.61024 2.81856C4.61024 1.25554 3.88256 0.461219 2.7506 0.461219C1.67255 0.461219 0.7023 1.35803 0.567544 2.81856H4.61024Z" transform="translate(106.11 16.9883)" fill="white"/>
<path d="M0 3.9098e-07H0.592932V2.61357L0.565979 3.79224C1.21281 3.27978 1.99439 2.84418 2.77598 2.84418C4.47391 2.84418 5.33636 4.04848 5.33636 5.9446C5.33636 7.99446 4.01574 9.22438 2.53342 9.22438C1.91354 9.22438 1.21281 8.94252 0.619877 8.50692H0.592932L0.539026 9.07064H0.0539059V3.9098e-07H0ZM2.47952 8.73753C3.77319 8.73753 4.68953 7.61011 4.68953 5.97022C4.68953 4.48407 4.12355 3.38227 2.66818 3.38227C2.02135 3.38227 1.34757 3.741 0.592932 4.38158V7.96884C1.29367 8.53255 1.9944 8.73753 2.47952 8.73753Z" transform="translate(112.984 14.1184)" fill="white"/>
<path d="M0.997197 2.22922H3.28995e-06V1.79363L0.997197 1.74238L1.07806 3.9098e-07H1.59013V1.74238H3.42281V2.22922H1.59013V6.17521C1.59013 6.94391 1.77879 7.45637 2.66818 7.45637C2.91074 7.45637 3.23416 7.3795 3.47672 7.27701L3.63843 7.73823C3.26111 7.86634 2.85684 7.96884 2.61428 7.96884C1.37452 7.96884 1.02415 7.22576 1.02415 6.14959V2.22922H0.997197Z" transform="translate(119.372 15.3995)" fill="white"/>
<path d="M2.72365 -3.9098e-07C4.23292 -3.9098e-07 5.17622 1.02493 5.17622 2.79294C5.17622 2.94668 5.17622 3.10042 5.14927 3.25416H0.567542C0.594493 4.79155 1.53779 5.86773 2.96621 5.86773C3.66694 5.86773 4.20597 5.66274 4.69109 5.32964L4.93366 5.76523C4.42158 6.04709 3.8556 6.35457 2.93925 6.35457C1.29522 6.35457 0.00156276 5.1759 0.00156276 3.17729C-0.0523399 1.20429 1.29523 -3.9098e-07 2.72365 -3.9098e-07ZM4.61024 2.81856C4.61024 1.25554 3.88256 0.461219 2.7506 0.461219C1.67255 0.461219 0.702299 1.35803 0.567542 2.81856H4.61024Z" transform="translate(123.736 16.9883)" fill="white"/>
<path d="M0.404266 5.09903C0.943293 5.53463 1.50927 5.86773 2.42561 5.86773C3.42281 5.86773 3.93489 5.30402 3.93489 4.66343C3.93489 3.89474 3.0994 3.58726 2.37172 3.33102C1.40147 2.99792 0.350369 2.6392 0.350369 1.61427C0.350369 0.743075 1.07806 1.9549e-07 2.39867 1.9549e-07C3.07245 1.9549e-07 3.74623 0.256232 4.2044 0.640581L3.88099 1.02493C3.44977 0.717451 2.9916 0.486842 2.34476 0.486842C1.37452 0.486842 0.916348 1.02493 0.916348 1.58864C0.916348 2.25485 1.67098 2.5367 2.42561 2.81856C3.42281 3.17728 4.50087 3.48476 4.50087 4.66343C4.50087 5.56025 3.71928 6.35457 2.34476 6.35457C1.40147 6.35457 0.565974 5.97022 -3.28996e-06 5.509L0.404266 5.09903Z" transform="translate(129.775 17.0138)" fill="white"/>
<path d="M0.997199 2.22922H-3.28995e-06V1.79363L0.997199 1.74238L1.07805 3.9098e-07H1.59013V1.74238H3.42282V2.22922H1.59013V6.17521C1.59013 6.94391 1.77879 7.45637 2.66818 7.45637C2.91074 7.45637 3.23416 7.3795 3.47672 7.27701L3.63842 7.73823C3.26111 7.86634 2.85684 7.96884 2.61428 7.96884C1.37452 7.96884 1.02415 7.22576 1.02415 6.14959V2.22922H0.997199Z" transform="translate(135.165 15.3995)" fill="white"/>
<path d="M0.997195 2.22922H-6.57991e-06V1.79363L0.997195 1.74238L1.07805 3.9098e-07H1.59013V1.74238H3.42281V2.22922H1.59013V6.17521C1.59013 6.94391 1.77879 7.45637 2.66818 7.45637C2.91074 7.45637 3.23416 7.3795 3.47672 7.27701L3.61148 7.7126C3.23416 7.84072 2.82989 7.94321 2.58733 7.94321C1.34757 7.94321 0.997195 7.20014 0.997195 6.12396V2.22922Z" transform="translate(142.388 15.3995)" fill="white"/>
<path d="M0 0.512465C0 0.204986 0.242562 -3.9098e-07 0.539026 -3.9098e-07C0.835491 -3.9098e-07 1.07805 0.179363 1.07805 0.512465C1.07805 0.794321 0.835491 0.999308 0.539026 0.999308C0.21561 0.999308 0 0.794321 0 0.512465ZM0.215607 2.45983H0.808539V8.50693H0.215607V2.45983Z" transform="translate(139.936 14.6821)" fill="white"/>
<defs>
<linearGradient id="paint0_linear" x2="1" gradientUnits="userSpaceOnUse" gradientTransform="translate(-8.87329 6.1308) scale(36.7281 36.2253) rotate(-22)">
<stop stop-color="white" stop-opacity="0"/>
<stop offset="0.4434" stop-color="white" stop-opacity="0.5"/>
<stop offset="1" stop-color="white" stop-opacity="0"/>
</linearGradient>
<linearGradient id="paint1_linear" x2="1" gradientUnits="userSpaceOnUse" gradientTransform="translate(-0.00621187 2.45595) scale(10.1077 9.96932)">
<stop offset="0.000520833" stop-color="white" stop-opacity="0.25"/>
<stop offset="1"/>
</linearGradient>
<linearGradient id="paint2_linear" x2="1" gradientUnits="userSpaceOnUse" gradientTransform="translate(-0.00556372 1.21174) scale(16.2947 16.0717)">
<stop/>
<stop offset="1" stop-color="white" stop-opacity="0.25"/>
</linearGradient>
<linearGradient id="paint3_linear" x2="1" gradientUnits="userSpaceOnUse" gradientTransform="translate(0.121831 0.27289) scale(0.183915 0.181397) rotate(-22)">
<stop stop-color="white" stop-opacity="0"/>
<stop offset="0.4434" stop-color="white" stop-opacity="0.5"/>
<stop offset="1" stop-color="white" stop-opacity="0"/>
</linearGradient>
<linearGradient id="paint4_linear" x2="1" gradientUnits="userSpaceOnUse" gradientTransform="translate(0.0856128 0.221399) scale(0.260381 0.256816) rotate(-22.0013)">
<stop stop-color="white" stop-opacity="0"/>
<stop offset="0.4434" stop-color="white" stop-opacity="0.5"/>
<stop offset="1" stop-color="white" stop-opacity="0"/>
</linearGradient>
<linearGradient id="paint5_linear" x2="1" gradientUnits="userSpaceOnUse" gradientTransform="translate(0.162739 0.464045) scale(0.230005 0.226857) rotate(-22.0015)">
<stop stop-color="white" stop-opacity="0"/>
<stop offset="0.4434" stop-color="white" stop-opacity="0.5"/>
<stop offset="1" stop-color="white" stop-opacity="0"/>
</linearGradient>
<linearGradient id="paint6_linear" x2="1" gradientUnits="userSpaceOnUse" gradientTransform="translate(-4.79259 6.27728) scale(14.2105 14.0159) rotate(-45.0001)">
<stop offset="0.1674" stop-color="white" stop-opacity="0"/>
<stop offset="1" stop-color="white" stop-opacity="0.9"/>
</linearGradient>
</defs>
</svg>
